# MagicaVoxel @ Ephtracy

# group
o 

# material
mtllib flowerBlack.mtl
usemtl palette

# normals
vn -1 0 0
vn 1 0 0
vn 0 0 1
vn 0 0 -1
vn 0 -1 0
vn 0 1 0

# texcoords
vt 0.900391 0.5
vt 0.994141 0.5

# verts
v -0.3 0.6 0.0999999
v -0.3 0.6 -5.96046e-08
v -0.3 0.7 0.2
v -0.3 0.7 0.0999999
v -0.3 0.8 0.0999999
v -0.3 0.8 -5.96046e-08
v -0.3 0.9 0.2
v -0.3 0.9 0.0999999
v -0.2 0 -5.96046e-08
v -0.2 0 -0.1
v -0.2 0.1 0.0999999
v -0.2 0.1 -5.96046e-08
v -0.2 0.2 -5.96046e-08
v -0.2 0.2 -0.1
v -0.2 0.6 0.2
v -0.2 0.6 0.0999999
v -0.2 0.6 -5.96046e-08
v -0.2 0.6 -0.1
v -0.2 0.7 0.2
v -0.2 0.7 0.0999999
v -0.2 0.8 -5.96046e-08
v -0.2 0.9 -5.96046e-08
v -0.2 0.9 -0.1
v -0.2 0.8 0.2
v -0.2 0.8 0.0999999
v -0.2 0.9 0.2
v -0.2 0.9 0.0999999
v -0.1 0 -5.96046e-08
v -0.1 0 -0.1
v -0.1 0.1 0.0999999
v -0.1 0.1 -5.96046e-08
v -0.1 0.2 -5.96046e-08
v -0.1 0.2 -0.1
v -0.1 0.6 0.2
v -0.1 0.6 0.0999999
v -0.1 0.6 -5.96046e-08
v -0.1 0.7 0.0999999
v -0.1 0.7 -0.1
v -0.1 0.8 0.2
v -0.1 0.8 -5.96046e-08
v -0.1 0.9 -5.96046e-08
v -0.1 0.9 -0.1
v 2.98023e-08 0.6 0.0999999
v 2.98023e-08 0.6 -0.1
v 2.98023e-08 0.7 0.0999999
v 2.98023e-08 0.7 -0.1
v -0.3 0.7 0.2
v -0.3 0.9 0.2
v -0.2 0.6 0.2
v -0.2 0.7 0.2
v -0.2 0.8 0.2
v -0.2 0.9 0.2
v -0.1 0.6 0.2
v -0.1 0.8 0.2
v -0.3 0.6 0.0999999
v -0.3 0.7 0.0999999
v -0.2 0.1 0.0999999
v -0.2 0.6 0.0999999
v -0.2 0.7 0.0999999
v -0.1 0.1 0.0999999
v -0.1 0.6 0.0999999
v -0.1 0.7 0.0999999
v 2.98023e-08 0.6 0.0999999
v 2.98023e-08 0.7 0.0999999
v -0.2 0 -5.96046e-08
v -0.2 0.1 -5.96046e-08
v -0.2 0.8 -5.96046e-08
v -0.2 0.9 -5.96046e-08
v -0.1 0 -5.96046e-08
v -0.1 0.1 -5.96046e-08
v -0.1 0.8 -5.96046e-08
v -0.1 0.9 -5.96046e-08
v -0.3 0.8 0.0999999
v -0.3 0.9 0.0999999
v -0.2 0.8 0.0999999
v -0.2 0.9 0.0999999
v -0.3 0.6 -5.96046e-08
v -0.3 0.8 -5.96046e-08
v -0.2 0.2 -5.96046e-08
v -0.2 0.6 -5.96046e-08
v -0.2 0.8 -5.96046e-08
v -0.1 0.2 -5.96046e-08
v -0.1 0.6 -5.96046e-08
v -0.2 0 -0.1
v -0.2 0.2 -0.1
v -0.2 0.6 -0.1
v -0.2 0.9 -0.1
v -0.1 0 -0.1
v -0.1 0.2 -0.1
v -0.1 0.7 -0.1
v -0.1 0.9 -0.1
v 2.98023e-08 0.6 -0.1
v 2.98023e-08 0.7 -0.1
v -0.2 0 -5.96046e-08
v -0.1 0 -5.96046e-08
v -0.2 0 -0.1
v -0.1 0 -0.1
v -0.2 0.1 0.0999999
v -0.1 0.1 0.0999999
v -0.2 0.1 -5.96046e-08
v -0.1 0.1 -5.96046e-08
v -0.2 0.6 0.2
v -0.1 0.6 0.2
v -0.3 0.6 0.0999999
v -0.2 0.6 0.0999999
v -0.1 0.6 0.0999999
v 2.98023e-08 0.6 0.0999999
v -0.3 0.6 -5.96046e-08
v -0.2 0.6 -5.96046e-08
v -0.1 0.6 -5.96046e-08
v -0.2 0.6 -0.1
v 2.98023e-08 0.6 -0.1
v -0.3 0.7 0.2
v -0.2 0.7 0.2
v -0.3 0.7 0.0999999
v -0.2 0.7 0.0999999
v -0.2 0.2 -5.96046e-08
v -0.1 0.2 -5.96046e-08
v -0.2 0.2 -0.1
v -0.1 0.2 -0.1
v -0.1 0.7 0.0999999
v 2.98023e-08 0.7 0.0999999
v -0.1 0.7 -0.1
v 2.98023e-08 0.7 -0.1
v -0.2 0.8 0.2
v -0.1 0.8 0.2
v -0.3 0.8 0.0999999
v -0.2 0.8 0.0999999
v -0.3 0.8 -5.96046e-08
v -0.2 0.8 -5.96046e-08
v -0.1 0.8 -5.96046e-08
v -0.3 0.9 0.2
v -0.2 0.9 0.2
v -0.3 0.9 0.0999999
v -0.2 0.9 0.0999999
v -0.2 0.9 -5.96046e-08
v -0.1 0.9 -5.96046e-08
v -0.2 0.9 -0.1
v -0.1 0.9 -0.1

# faces
f 4/2/1 2/2/1 1/2/1
f 5/2/1 2/2/1 4/2/1
f 5/2/1 4/2/1 3/2/1
f 6/2/1 2/2/1 5/2/1
f 7/2/1 5/2/1 3/2/1
f 8/2/1 5/2/1 7/2/1
f 12/1/1 10/1/1 9/1/1
f 13/1/1 10/1/1 12/1/1
f 13/1/1 12/1/1 11/1/1
f 14/1/1 10/1/1 13/1/1
f 16/1/1 13/1/1 11/1/1
f 17/1/1 13/1/1 16/1/1
f 19/2/1 16/2/1 15/2/1
f 20/2/1 16/2/1 19/2/1
f 21/2/1 18/2/1 17/2/1
f 22/2/1 18/2/1 21/2/1
f 23/2/1 18/2/1 22/2/1
f 24/2/2 25/2/2 26/2/2
f 26/2/2 25/2/2 27/2/2
f 28/1/2 29/1/2 31/1/2
f 31/1/2 29/1/2 32/1/2
f 30/1/2 31/1/2 32/1/2
f 32/1/2 29/1/2 33/1/2
f 30/1/2 32/1/2 35/1/2
f 35/1/2 32/1/2 36/1/2
f 34/2/2 35/2/2 37/2/2
f 34/2/2 37/2/2 39/2/2
f 37/2/2 38/2/2 39/2/2
f 39/2/2 38/2/2 40/2/2
f 40/2/2 38/2/2 41/2/2
f 41/2/2 38/2/2 42/2/2
f 43/2/2 44/2/2 45/2/2
f 45/2/2 44/2/2 46/2/2
f 50/2/3 48/2/3 47/2/3
f 51/2/3 48/2/3 50/2/3
f 52/2/3 48/2/3 51/2/3
f 53/2/3 50/2/3 49/2/3
f 53/2/3 51/2/3 50/2/3
f 54/2/3 51/2/3 53/2/3
f 58/2/3 56/2/3 55/2/3
f 59/2/3 56/2/3 58/2/3
f 60/1/3 58/1/3 57/1/3
f 61/1/3 58/1/3 60/1/3
f 63/2/3 62/2/3 61/2/3
f 64/2/3 62/2/3 63/2/3
f 69/1/3 66/1/3 65/1/3
f 70/1/3 66/1/3 69/1/3
f 71/2/3 68/2/3 67/2/3
f 72/2/3 68/2/3 71/2/3
f 73/2/4 74/2/4 75/2/4
f 75/2/4 74/2/4 76/2/4
f 77/2/4 78/2/4 80/2/4
f 80/2/4 78/2/4 81/2/4
f 79/1/4 80/1/4 82/1/4
f 82/1/4 80/1/4 83/1/4
f 84/1/4 85/1/4 88/1/4
f 88/1/4 85/1/4 89/1/4
f 86/2/4 87/2/4 90/2/4
f 90/2/4 87/2/4 91/2/4
f 86/2/4 90/2/4 92/2/4
f 92/2/4 90/2/4 93/2/4
f 96/1/5 95/1/5 94/1/5
f 97/1/5 95/1/5 96/1/5
f 100/1/5 99/1/5 98/1/5
f 101/1/5 99/1/5 100/1/5
f 105/2/5 103/2/5 102/2/5
f 106/2/5 103/2/5 105/2/5
f 108/2/5 105/2/5 104/2/5
f 109/2/5 105/2/5 108/2/5
f 110/2/5 107/2/5 106/2/5
f 111/2/5 110/2/5 109/2/5
f 112/2/5 107/2/5 110/2/5
f 112/2/5 110/2/5 111/2/5
f 115/2/5 114/2/5 113/2/5
f 116/2/5 114/2/5 115/2/5
f 117/1/6 118/1/6 119/1/6
f 119/1/6 118/1/6 120/1/6
f 121/2/6 122/2/6 123/2/6
f 123/2/6 122/2/6 124/2/6
f 125/2/6 126/2/6 128/2/6
f 127/2/6 128/2/6 129/2/6
f 128/2/6 126/2/6 130/2/6
f 129/2/6 128/2/6 130/2/6
f 130/2/6 126/2/6 131/2/6
f 132/2/6 133/2/6 134/2/6
f 134/2/6 133/2/6 135/2/6
f 136/2/6 137/2/6 138/2/6
f 138/2/6 137/2/6 139/2/6
