# MagicaVoxel @ Ephtracy

# group
o 

# material
mtllib flowerRed.mtl
usemtl palette

# normals
vn -1 0 0
vn 1 0 0
vn 0 0 1
vn 0 0 -1
vn 0 -1 0
vn 0 1 0

# texcoords
vt 0.849609 0.5
vt 0.857422 0.5
vt 0.900391 0.5

# verts
v -0.3 0.8 0.0999999
v -0.3 0.8 -0.1
v -0.3 1 0.0999999
v -0.3 1 -5.96046e-08
v -0.3 1.1 -5.96046e-08
v -0.3 1.1 -0.1
v -0.2 0 -5.96046e-08
v -0.2 0 -0.1
v -0.2 0.1 0.0999999
v -0.2 0.1 -5.96046e-08
v -0.2 0.2 -5.96046e-08
v -0.2 0.2 -0.1
v -0.2 0.7 0.0999999
v -0.2 0.7 -5.96046e-08
v -0.2 0.7 -0.1
v -0.2 0.8 0.2
v -0.2 0.8 0.0999999
v -0.2 0.8 -5.96046e-08
v -0.2 0.8 -0.1
v -0.2 0.8 -0.2
v -0.2 1 0.0999999
v -0.2 1.1 -0.1
v -0.2 1.2 0.2
v -0.2 1.2 0.0999999
v -0.2 1.2 -0.1
v -0.2 1.2 -0.2
v -0.1 0.8 0.0999999
v -0.1 0.8 -5.96046e-08
v -0.1 0.9 -5.96046e-08
v -0.1 0.9 -0.1
v -0.1 1 0.0999999
v -0.1 1 -0.1
v -0.2 0.8 0.0999999
v -0.2 0.8 -5.96046e-08
v -0.2 0.9 -5.96046e-08
v -0.2 0.9 -0.1
v -0.2 1 0.0999999
v -0.2 1 -5.96046e-08
v -0.2 1.1 -5.96046e-08
v -0.2 1.1 -0.1
v -0.1 0 -5.96046e-08
v -0.1 0 -0.1
v -0.1 0.1 0.0999999
v -0.1 0.1 -5.96046e-08
v -0.1 0.2 -5.96046e-08
v -0.1 0.2 -0.1
v -0.1 0.7 0.0999999
v -0.1 0.7 -5.96046e-08
v -0.1 0.8 0.2
v -0.1 0.8 0.0999999
v -0.1 1 0.0999999
v -0.1 1 -0.1
v -0.1 1 -0.2
v -0.1 1.2 0.2
v -0.1 1.2 0.0999999
v -0.1 1.2 -0.1
v -0.1 1.2 -0.2
v 2.98023e-08 0.7 0.0999999
v 2.98023e-08 0.7 -0.1
v 2.98023e-08 0.8 -0.1
v 2.98023e-08 0.8 -0.2
v 2.98023e-08 1 0.0999999
v 2.98023e-08 1 -0.2
v -0.2 0.8 0.2
v -0.2 1.2 0.2
v -0.1 0.8 0.2
v -0.1 1.2 0.2
v -0.3 0.8 0.0999999
v -0.3 1 0.0999999
v -0.2 0.1 0.0999999
v -0.2 0.7 0.0999999
v -0.2 0.8 0.0999999
v -0.2 1 0.0999999
v -0.1 0.1 0.0999999
v -0.1 0.7 0.0999999
v -0.1 0.8 0.0999999
v -0.1 1 0.0999999
v 2.98023e-08 0.7 0.0999999
v 2.98023e-08 1 0.0999999
v -0.3 1 -5.96046e-08
v -0.3 1.1 -5.96046e-08
v -0.2 0 -5.96046e-08
v -0.2 0.1 -5.96046e-08
v -0.2 0.8 -5.96046e-08
v -0.2 0.9 -5.96046e-08
v -0.2 1 -5.96046e-08
v -0.2 1.1 -5.96046e-08
v -0.1 0 -5.96046e-08
v -0.1 0.1 -5.96046e-08
v -0.1 0.8 -5.96046e-08
v -0.1 0.9 -5.96046e-08
v -0.2 0.9 -0.1
v -0.2 1.1 -0.1
v -0.2 1.2 -0.1
v -0.1 0.9 -0.1
v -0.1 1 -0.1
v -0.1 1.2 -0.1
v -0.2 0.8 0.0999999
v -0.2 1 0.0999999
v -0.2 1.2 0.0999999
v -0.1 0.8 0.0999999
v -0.1 1 0.0999999
v -0.1 1.2 0.0999999
v -0.2 0.2 -5.96046e-08
v -0.2 0.7 -5.96046e-08
v -0.1 0.2 -5.96046e-08
v -0.1 0.7 -5.96046e-08
v -0.3 0.8 -0.1
v -0.3 1.1 -0.1
v -0.2 0 -0.1
v -0.2 0.2 -0.1
v -0.2 0.7 -0.1
v -0.2 0.8 -0.1
v -0.2 1.1 -0.1
v -0.1 0 -0.1
v -0.1 0.2 -0.1
v -0.1 0.7 -0.1
v -0.1 0.8 -0.1
v 2.98023e-08 0.7 -0.1
v 2.98023e-08 0.8 -0.1
v -0.2 0.8 -0.2
v -0.2 1.2 -0.2
v -0.1 1 -0.2
v -0.1 1.2 -0.2
v 2.98023e-08 0.8 -0.2
v 2.98023e-08 1 -0.2
v -0.2 0 -5.96046e-08
v -0.1 0 -5.96046e-08
v -0.2 0 -0.1
v -0.1 0 -0.1
v -0.2 0.1 0.0999999
v -0.1 0.1 0.0999999
v -0.2 0.1 -5.96046e-08
v -0.1 0.1 -5.96046e-08
v -0.1 0.7 0.0999999
v 2.98023e-08 0.7 0.0999999
v -0.2 0.7 -5.96046e-08
v -0.1 0.7 -5.96046e-08
v -0.2 0.7 -0.1
v -0.1 0.7 -0.1
v 2.98023e-08 0.7 -0.1
v -0.2 0.8 0.2
v -0.1 0.8 0.2
v -0.3 0.8 0.0999999
v -0.2 0.8 0.0999999
v -0.1 0.8 0.0999999
v -0.2 0.8 -5.96046e-08
v -0.3 0.8 -0.1
v -0.2 0.8 -0.1
v -0.1 0.8 -0.1
v 2.98023e-08 0.8 -0.1
v -0.2 0.8 -0.2
v 2.98023e-08 0.8 -0.2
v -0.2 0.2 -5.96046e-08
v -0.1 0.2 -5.96046e-08
v -0.2 0.2 -0.1
v -0.1 0.2 -0.1
v -0.2 0.8 0.0999999
v -0.1 0.8 0.0999999
v -0.2 0.8 -5.96046e-08
v -0.1 0.8 -5.96046e-08
v -0.2 0.9 -5.96046e-08
v -0.1 0.9 -5.96046e-08
v -0.2 0.9 -0.1
v -0.1 0.9 -0.1
v -0.3 1 0.0999999
v -0.2 1 0.0999999
v -0.1 1 0.0999999
v 2.98023e-08 1 0.0999999
v -0.3 1 -5.96046e-08
v -0.2 1 -5.96046e-08
v -0.1 1 -0.1
v -0.1 1 -0.2
v 2.98023e-08 1 -0.2
v -0.3 1.1 -5.96046e-08
v -0.2 1.1 -5.96046e-08
v -0.3 1.1 -0.1
v -0.2 1.1 -0.1
v -0.2 1.2 0.2
v -0.1 1.2 0.2
v -0.2 1.2 0.0999999
v -0.1 1.2 0.0999999
v -0.2 1.2 -0.1
v -0.1 1.2 -0.1
v -0.2 1.2 -0.2
v -0.1 1.2 -0.2

# faces
f 3/1/1 2/1/1 1/1/1
f 4/1/1 2/1/1 3/1/1
f 5/1/1 2/1/1 4/1/1
f 6/1/1 2/1/1 5/1/1
f 10/3/1 8/3/1 7/3/1
f 11/3/1 8/3/1 10/3/1
f 11/3/1 10/3/1 9/3/1
f 12/3/1 8/3/1 11/3/1
f 13/3/1 11/3/1 9/3/1
f 14/3/1 11/3/1 13/3/1
f 17/1/1 14/1/1 13/1/1
f 18/3/1 15/3/1 14/3/1
f 18/1/1 14/1/1 17/1/1
f 19/3/1 15/3/1 18/3/1
f 21/1/1 17/1/1 16/1/1
f 22/1/1 20/1/1 19/1/1
f 23/1/1 21/1/1 16/1/1
f 24/1/1 21/1/1 23/1/1
f 25/1/1 20/1/1 22/1/1
f 26/1/1 20/1/1 25/1/1
f 29/1/1 28/1/1 27/1/1
f 31/1/1 29/1/1 27/1/1
f 31/1/1 30/1/1 29/1/1
f 32/1/1 30/1/1 31/1/1
f 33/1/2 34/1/2 35/1/2
f 33/1/2 35/1/2 37/1/2
f 35/1/2 36/1/2 37/1/2
f 37/1/2 36/1/2 38/1/2
f 38/1/2 36/1/2 39/1/2
f 39/1/2 36/1/2 40/1/2
f 41/3/2 42/3/2 44/3/2
f 44/3/2 42/3/2 45/3/2
f 43/3/2 44/3/2 45/3/2
f 45/3/2 42/3/2 46/3/2
f 43/3/2 45/3/2 47/3/2
f 47/3/2 45/3/2 48/3/2
f 49/1/2 50/1/2 51/1/2
f 49/1/2 51/1/2 54/1/2
f 54/1/2 51/1/2 55/1/2
f 52/1/2 53/1/2 56/1/2
f 56/1/2 53/1/2 57/1/2
f 58/1/2 59/1/2 60/1/2
f 58/1/2 60/1/2 62/1/2
f 60/1/2 61/1/2 62/1/2
f 62/1/2 61/1/2 63/1/2
f 66/1/3 65/1/3 64/1/3
f 67/1/3 65/1/3 66/1/3
f 72/1/3 69/1/3 68/1/3
f 73/1/3 69/1/3 72/1/3
f 74/3/3 71/3/3 70/3/3
f 75/1/3 72/1/3 71/1/3
f 75/3/3 71/3/3 74/3/3
f 76/1/3 72/1/3 75/1/3
f 78/1/3 77/1/3 76/1/3
f 78/1/3 76/1/3 75/1/3
f 79/1/3 77/1/3 78/1/3
f 86/1/3 81/1/3 80/1/3
f 87/1/3 81/1/3 86/1/3
f 88/3/3 83/3/3 82/3/3
f 89/3/3 83/3/3 88/3/3
f 90/2/3 85/2/3 84/2/3
f 91/2/3 85/2/3 90/2/3
f 95/1/3 93/1/3 92/1/3
f 95/1/3 94/1/3 93/1/3
f 96/1/3 94/1/3 95/1/3
f 97/1/3 94/1/3 96/1/3
f 98/1/4 99/1/4 101/1/4
f 99/1/4 100/1/4 101/1/4
f 101/1/4 100/1/4 102/1/4
f 102/1/4 100/1/4 103/1/4
f 104/3/4 105/3/4 106/3/4
f 106/3/4 105/3/4 107/3/4
f 108/1/4 109/1/4 113/1/4
f 113/1/4 109/1/4 114/1/4
f 110/3/4 111/3/4 115/3/4
f 115/3/4 111/3/4 116/3/4
f 112/3/4 113/3/4 117/3/4
f 117/3/4 113/3/4 118/3/4
f 117/1/4 118/1/4 119/1/4
f 119/1/4 118/1/4 120/1/4
f 121/1/4 122/1/4 123/1/4
f 123/1/4 122/1/4 124/1/4
f 121/1/4 123/1/4 125/1/4
f 125/1/4 123/1/4 126/1/4
f 129/3/5 128/3/5 127/3/5
f 130/3/5 128/3/5 129/3/5
f 133/3/5 132/3/5 131/3/5
f 134/3/5 132/3/5 133/3/5
f 138/1/5 136/1/5 135/1/5
f 139/3/5 138/3/5 137/3/5
f 140/1/5 136/1/5 138/1/5
f 140/3/5 138/3/5 139/3/5
f 141/1/5 136/1/5 140/1/5
f 145/1/5 143/1/5 142/1/5
f 146/1/5 143/1/5 145/1/5
f 147/1/5 145/1/5 144/1/5
f 148/1/5 147/1/5 144/1/5
f 149/1/5 147/1/5 148/1/5
f 152/1/5 150/1/5 149/1/5
f 152/1/5 151/1/5 150/1/5
f 153/1/5 151/1/5 152/1/5
f 154/3/6 155/3/6 156/3/6
f 156/3/6 155/3/6 157/3/6
f 158/1/6 159/1/6 160/1/6
f 160/1/6 159/1/6 161/1/6
f 162/2/6 163/2/6 164/2/6
f 164/2/6 163/2/6 165/2/6
f 166/1/6 167/1/6 170/1/6
f 170/1/6 167/1/6 171/1/6
f 168/1/6 169/1/6 172/1/6
f 172/1/6 169/1/6 173/1/6
f 173/1/6 169/1/6 174/1/6
f 175/1/6 176/1/6 177/1/6
f 177/1/6 176/1/6 178/1/6
f 179/1/6 180/1/6 181/1/6
f 181/1/6 180/1/6 182/1/6
f 183/1/6 184/1/6 185/1/6
f 185/1/6 184/1/6 186/1/6
