# MagicaVoxel @ Ephtracy

# group
o 

# material
mtllib flowerBlue.mtl
usemtl palette

# normals
vn -1 0 0
vn 1 0 0
vn 0 0 1
vn 0 0 -1
vn 0 -1 0
vn 0 1 0

# texcoords
vt 0.494141 0.5
vt 0.900391 0.5

# verts
v -0.3 0.6 0.1
v -0.3 0.6 -2.98023e-08
v -0.3 0.7 0.2
v -0.3 0.7 0.1
v -0.3 0.8 0.2
v -0.3 0.8 0.1
v -0.3 0.9 0.1
v -0.3 0.9 -2.98023e-08
v -0.2 0 -2.98023e-08
v -0.2 0 -0.1
v -0.2 0.1 0.1
v -0.2 0.1 -2.98023e-08
v -0.2 0.2 -2.98023e-08
v -0.2 0.2 -0.1
v -0.2 0.6 0.2
v -0.2 0.6 0.1
v -0.2 0.6 -2.98023e-08
v -0.2 0.6 -0.1
v -0.2 0.7 0.3
v -0.2 0.7 0.2
v -0.2 0.7 0.1
v -0.2 0.7 -0.1
v -0.2 0.7 -0.2
v -0.2 0.8 0.2
v -0.2 0.8 -2.98023e-08
v -0.2 0.8 -0.1
v -0.2 0.9 0.3
v -0.2 0.9 0.2
v -0.2 0.9 -0.1
v -0.2 0.9 -0.2
v -0.2 0.8 0.1
v -0.2 0.8 -2.98023e-08
v -0.2 0.9 0.1
v -0.2 0.9 -2.98023e-08
v -0.1 0 -2.98023e-08
v -0.1 0 -0.1
v -0.1 0.1 0.1
v -0.1 0.1 -2.98023e-08
v -0.1 0.2 -2.98023e-08
v -0.1 0.2 -0.1
v -0.1 0.6 0.1
v -0.1 0.6 -2.98023e-08
v -0.1 0.7 0.3
v -0.1 0.7 0.2
v -0.1 0.7 0.1
v -0.1 0.7 -2.98023e-08
v -0.1 0.7 -0.1
v -0.1 0.7 -0.2
v -0.1 0.8 0.2
v -0.1 0.8 0.1
v -0.1 0.8 -2.98023e-08
v -0.1 0.8 -0.1
v -0.1 0.9 0.3
v -0.1 0.9 0.2
v -0.1 0.9 -0.1
v -0.1 0.9 -0.2
v 2.98023e-08 0.6 0.2
v 2.98023e-08 0.6 -0.1
v 2.98023e-08 0.7 0.2
v 2.98023e-08 0.7 0.1
v 2.98023e-08 0.7 -2.98023e-08
v 2.98023e-08 0.7 -0.1
v 2.98023e-08 0.8 0.1
v 2.98023e-08 0.8 -2.98023e-08
v -0.2 0.7 0.3
v -0.2 0.9 0.3
v -0.1 0.7 0.3
v -0.1 0.9 0.3
v -0.3 0.7 0.2
v -0.3 0.8 0.2
v -0.2 0.6 0.2
v -0.2 0.7 0.2
v -0.2 0.8 0.2
v -0.1 0.7 0.2
v 2.98023e-08 0.6 0.2
v 2.98023e-08 0.7 0.2
v -0.3 0.6 0.1
v -0.3 0.7 0.1
v -0.3 0.8 0.1
v -0.3 0.9 0.1
v -0.2 0.1 0.1
v -0.2 0.6 0.1
v -0.2 0.7 0.1
v -0.2 0.8 0.1
v -0.2 0.9 0.1
v -0.1 0.1 0.1
v -0.1 0.6 0.1
v -0.1 0.7 0.1
v -0.1 0.8 0.1
v 2.98023e-08 0.7 0.1
v 2.98023e-08 0.8 0.1
v -0.2 0 -2.98023e-08
v -0.2 0.1 -2.98023e-08
v -0.1 0 -2.98023e-08
v -0.1 0.1 -2.98023e-08
v -0.2 0.8 -0.1
v -0.2 0.9 -0.1
v -0.1 0.8 -0.1
v -0.1 0.9 -0.1
v -0.2 0.8 0.2
v -0.2 0.9 0.2
v -0.1 0.8 0.2
v -0.1 0.9 0.2
v -0.3 0.6 -2.98023e-08
v -0.3 0.9 -2.98023e-08
v -0.2 0.2 -2.98023e-08
v -0.2 0.6 -2.98023e-08
v -0.2 0.8 -2.98023e-08
v -0.2 0.9 -2.98023e-08
v -0.1 0.2 -2.98023e-08
v -0.1 0.6 -2.98023e-08
v -0.1 0.7 -2.98023e-08
v -0.1 0.8 -2.98023e-08
v 2.98023e-08 0.7 -2.98023e-08
v 2.98023e-08 0.8 -2.98023e-08
v -0.2 0 -0.1
v -0.2 0.2 -0.1
v -0.2 0.6 -0.1
v -0.2 0.7 -0.1
v -0.1 0 -0.1
v -0.1 0.2 -0.1
v -0.1 0.7 -0.1
v 2.98023e-08 0.6 -0.1
v 2.98023e-08 0.7 -0.1
v -0.2 0.7 -0.2
v -0.2 0.9 -0.2
v -0.1 0.7 -0.2
v -0.1 0.9 -0.2
v -0.2 0 -2.98023e-08
v -0.1 0 -2.98023e-08
v -0.2 0 -0.1
v -0.1 0 -0.1
v -0.2 0.1 0.1
v -0.1 0.1 0.1
v -0.2 0.1 -2.98023e-08
v -0.1 0.1 -2.98023e-08
v -0.2 0.6 0.2
v 2.98023e-08 0.6 0.2
v -0.3 0.6 0.1
v -0.2 0.6 0.1
v -0.1 0.6 0.1
v -0.3 0.6 -2.98023e-08
v -0.2 0.6 -2.98023e-08
v -0.1 0.6 -2.98023e-08
v -0.2 0.6 -0.1
v 2.98023e-08 0.6 -0.1
v -0.2 0.7 0.3
v -0.1 0.7 0.3
v -0.3 0.7 0.2
v -0.2 0.7 0.2
v -0.1 0.7 0.2
v -0.3 0.7 0.1
v -0.2 0.7 0.1
v -0.2 0.7 -0.1
v -0.1 0.7 -0.1
v -0.2 0.7 -0.2
v -0.1 0.7 -0.2
v -0.2 0.2 -2.98023e-08
v -0.1 0.2 -2.98023e-08
v -0.2 0.2 -0.1
v -0.1 0.2 -0.1
v -0.1 0.7 0.2
v 2.98023e-08 0.7 0.2
v -0.1 0.7 0.1
v 2.98023e-08 0.7 0.1
v -0.1 0.7 -2.98023e-08
v 2.98023e-08 0.7 -2.98023e-08
v -0.1 0.7 -0.1
v 2.98023e-08 0.7 -0.1
v -0.3 0.8 0.2
v -0.2 0.8 0.2
v -0.1 0.8 0.2
v -0.3 0.8 0.1
v -0.2 0.8 0.1
v -0.1 0.8 0.1
v 2.98023e-08 0.8 0.1
v -0.2 0.8 -2.98023e-08
v -0.1 0.8 -2.98023e-08
v 2.98023e-08 0.8 -2.98023e-08
v -0.2 0.8 -0.1
v -0.1 0.8 -0.1
v -0.2 0.9 0.3
v -0.1 0.9 0.3
v -0.2 0.9 0.2
v -0.1 0.9 0.2
v -0.3 0.9 0.1
v -0.2 0.9 0.1
v -0.3 0.9 -2.98023e-08
v -0.2 0.9 -2.98023e-08
v -0.2 0.9 -0.1
v -0.1 0.9 -0.1
v -0.2 0.9 -0.2
v -0.1 0.9 -0.2

# faces
f 4/1/1 2/1/1 1/1/1
f 5/1/1 4/1/1 3/1/1
f 6/1/1 2/1/1 4/1/1
f 6/1/1 4/1/1 5/1/1
f 7/1/1 2/1/1 6/1/1
f 8/1/1 2/1/1 7/1/1
f 12/2/1 10/2/1 9/2/1
f 13/2/1 10/2/1 12/2/1
f 13/2/1 12/2/1 11/2/1
f 14/2/1 10/2/1 13/2/1
f 16/2/1 13/2/1 11/2/1
f 17/2/1 13/2/1 16/2/1
f 20/1/1 16/1/1 15/1/1
f 21/1/1 16/1/1 20/1/1
f 22/1/1 18/1/1 17/1/1
f 24/1/1 20/1/1 19/1/1
f 25/1/1 22/1/1 17/1/1
f 25/1/1 23/1/1 22/1/1
f 26/1/1 23/1/1 25/1/1
f 27/1/1 24/1/1 19/1/1
f 28/1/1 24/1/1 27/1/1
f 29/1/1 23/1/1 26/1/1
f 30/1/1 23/1/1 29/1/1
f 31/1/2 32/1/2 33/1/2
f 33/1/2 32/1/2 34/1/2
f 35/2/2 36/2/2 38/2/2
f 38/2/2 36/2/2 39/2/2
f 37/2/2 38/2/2 39/2/2
f 39/2/2 36/2/2 40/2/2
f 37/2/2 39/2/2 41/2/2
f 41/2/2 39/2/2 42/2/2
f 44/1/2 45/1/2 49/1/2
f 43/1/2 44/1/2 49/1/2
f 49/1/2 45/1/2 50/1/2
f 46/1/2 47/1/2 51/1/2
f 47/1/2 48/1/2 51/1/2
f 51/1/2 48/1/2 52/1/2
f 43/1/2 49/1/2 53/1/2
f 53/1/2 49/1/2 54/1/2
f 52/1/2 48/1/2 55/1/2
f 55/1/2 48/1/2 56/1/2
f 57/1/2 58/1/2 59/1/2
f 59/1/2 58/1/2 60/1/2
f 60/1/2 58/1/2 61/1/2
f 61/1/2 58/1/2 62/1/2
f 60/1/2 61/1/2 63/1/2
f 63/1/2 61/1/2 64/1/2
f 67/1/3 66/1/3 65/1/3
f 68/1/3 66/1/3 67/1/3
f 72/1/3 70/1/3 69/1/3
f 73/1/3 70/1/3 72/1/3
f 74/1/3 72/1/3 71/1/3
f 75/1/3 74/1/3 71/1/3
f 76/1/3 74/1/3 75/1/3
f 82/1/3 78/1/3 77/1/3
f 83/1/3 78/1/3 82/1/3
f 84/1/3 80/1/3 79/1/3
f 85/1/3 80/1/3 84/1/3
f 86/2/3 82/2/3 81/2/3
f 87/2/3 82/2/3 86/2/3
f 90/1/3 89/1/3 88/1/3
f 91/1/3 89/1/3 90/1/3
f 94/2/3 93/2/3 92/2/3
f 95/2/3 93/2/3 94/2/3
f 98/1/3 97/1/3 96/1/3
f 99/1/3 97/1/3 98/1/3
f 100/1/4 101/1/4 102/1/4
f 102/1/4 101/1/4 103/1/4
f 104/1/4 105/1/4 107/1/4
f 107/1/4 105/1/4 108/1/4
f 108/1/4 105/1/4 109/1/4
f 106/2/4 107/2/4 110/2/4
f 110/2/4 107/2/4 111/2/4
f 112/1/4 113/1/4 114/1/4
f 114/1/4 113/1/4 115/1/4
f 116/2/4 117/2/4 120/2/4
f 120/2/4 117/2/4 121/2/4
f 118/1/4 119/1/4 122/1/4
f 118/1/4 122/1/4 123/1/4
f 123/1/4 122/1/4 124/1/4
f 125/1/4 126/1/4 127/1/4
f 127/1/4 126/1/4 128/1/4
f 131/2/5 130/2/5 129/2/5
f 132/2/5 130/2/5 131/2/5
f 135/2/5 134/2/5 133/2/5
f 136/2/5 134/2/5 135/2/5
f 140/1/5 138/1/5 137/1/5
f 141/1/5 138/1/5 140/1/5
f 142/1/5 140/1/5 139/1/5
f 143/1/5 140/1/5 142/1/5
f 144/1/5 138/1/5 141/1/5
f 145/1/5 144/1/5 143/1/5
f 146/1/5 138/1/5 144/1/5
f 146/1/5 144/1/5 145/1/5
f 150/1/5 148/1/5 147/1/5
f 151/1/5 148/1/5 150/1/5
f 152/1/5 150/1/5 149/1/5
f 153/1/5 150/1/5 152/1/5
f 156/1/5 155/1/5 154/1/5
f 157/1/5 155/1/5 156/1/5
f 158/2/6 159/2/6 160/2/6
f 160/2/6 159/2/6 161/2/6
f 162/1/6 163/1/6 164/1/6
f 164/1/6 163/1/6 165/1/6
f 166/1/6 167/1/6 168/1/6
f 168/1/6 167/1/6 169/1/6
f 170/1/6 171/1/6 173/1/6
f 171/1/6 172/1/6 173/1/6
f 173/1/6 172/1/6 174/1/6
f 174/1/6 172/1/6 175/1/6
f 175/1/6 176/1/6 177/1/6
f 174/1/6 175/1/6 177/1/6
f 177/1/6 176/1/6 178/1/6
f 178/1/6 176/1/6 179/1/6
f 177/1/6 178/1/6 180/1/6
f 180/1/6 178/1/6 181/1/6
f 182/1/6 183/1/6 184/1/6
f 184/1/6 183/1/6 185/1/6
f 186/1/6 187/1/6 188/1/6
f 188/1/6 187/1/6 189/1/6
f 190/1/6 191/1/6 192/1/6
f 192/1/6 191/1/6 193/1/6
