# MagicaVoxel @ Ephtracy

# group
o 

# material
mtllib flowerPurple.mtl
usemtl palette

# normals
vn -1 0 0
vn 1 0 0
vn 0 0 1
vn 0 0 -1
vn 0 -1 0
vn 0 1 0

# texcoords
vt 0.0957031 0.5
vt 0.900391 0.5

# verts
v -0.4 0.7 0.2
v -0.4 0.7 0.0999999
v -0.4 0.8 0.2
v -0.4 0.8 0.0999999
v -0.3 0.6 0.0999999
v -0.3 0.6 -5.96046e-08
v -0.3 0.7 0.0999999
v -0.3 0.7 -5.96046e-08
v -0.3 0.7 -0.1
v -0.3 0.8 0.2
v -0.3 0.8 0.0999999
v -0.3 0.8 -5.96046e-08
v -0.3 0.9 0.2
v -0.3 0.9 0.0999999
v -0.3 0.9 -5.96046e-08
v -0.3 0.9 -0.1
v -0.2 0 -5.96046e-08
v -0.2 0 -0.1
v -0.2 0.1 0.0999999
v -0.2 0.1 -5.96046e-08
v -0.2 0.2 -5.96046e-08
v -0.2 0.2 -0.1
v -0.2 0.6 0.2
v -0.2 0.6 0.0999999
v -0.2 0.6 -5.96046e-08
v -0.2 0.7 0.2
v -0.2 0.7 0.0999999
v -0.1 0 -5.96046e-08
v -0.1 0 -0.1
v -0.1 0.1 0.0999999
v -0.1 0.1 -5.96046e-08
v -0.1 0.2 -5.96046e-08
v -0.1 0.2 -0.1
v -0.1 0.6 0.0999999
v -0.1 0.6 -5.96046e-08
v -0.1 0.7 0.2
v -0.1 0.7 0.0999999
v -0.1 0.8 0.0999999
v -0.1 0.8 -5.96046e-08
v -0.1 0.8 -0.1
v -0.1 0.9 0.2
v -0.1 0.9 0.0999999
v -0.1 0.9 -5.96046e-08
v -0.1 0.9 -0.1
v 0 0.6 0.2
v 0 0.6 -5.96046e-08
v 0 0.7 0.2
v 0 0.7 0.0999999
v 0 0.7 -5.96046e-08
v 0 0.7 -0.1
v 0 0.8 0.0999999
v 0 0.8 -0.1
v -0.4 0.7 0.2
v -0.4 0.8 0.2
v -0.3 0.8 0.2
v -0.3 0.9 0.2
v -0.2 0.6 0.2
v -0.2 0.7 0.2
v -0.1 0.7 0.2
v -0.1 0.9 0.2
v 0 0.6 0.2
v 0 0.7 0.2
v -0.3 0.6 0.0999999
v -0.3 0.7 0.0999999
v -0.2 0.1 0.0999999
v -0.2 0.6 0.0999999
v -0.2 0.7 0.0999999
v -0.1 0.1 0.0999999
v -0.1 0.6 0.0999999
v -0.1 0.7 0.0999999
v -0.1 0.8 0.0999999
v 0 0.7 0.0999999
v 0 0.8 0.0999999
v -0.3 0.8 -5.96046e-08
v -0.3 0.9 -5.96046e-08
v -0.2 0 -5.96046e-08
v -0.2 0.1 -5.96046e-08
v -0.1 0 -5.96046e-08
v -0.1 0.1 -5.96046e-08
v -0.1 0.8 -5.96046e-08
v -0.1 0.9 -5.96046e-08
v -0.4 0.7 0.0999999
v -0.4 0.8 0.0999999
v -0.3 0.7 0.0999999
v -0.3 0.8 0.0999999
v -0.3 0.9 0.0999999
v -0.1 0.8 0.0999999
v -0.1 0.9 0.0999999
v -0.3 0.6 -5.96046e-08
v -0.3 0.7 -5.96046e-08
v -0.2 0.2 -5.96046e-08
v -0.2 0.6 -5.96046e-08
v -0.2 0.7 -5.96046e-08
v -0.1 0.2 -5.96046e-08
v -0.1 0.6 -5.96046e-08
v -0.1 0.7 -5.96046e-08
v 0 0.6 -5.96046e-08
v 0 0.7 -5.96046e-08
v -0.3 0.7 -0.1
v -0.3 0.9 -0.1
v -0.2 0 -0.1
v -0.2 0.2 -0.1
v -0.1 0 -0.1
v -0.1 0.2 -0.1
v -0.1 0.8 -0.1
v -0.1 0.9 -0.1
v 0 0.7 -0.1
v 0 0.8 -0.1
v -0.2 0 -5.96046e-08
v -0.1 0 -5.96046e-08
v -0.2 0 -0.1
v -0.1 0 -0.1
v -0.2 0.1 0.0999999
v -0.1 0.1 0.0999999
v -0.2 0.1 -5.96046e-08
v -0.1 0.1 -5.96046e-08
v -0.2 0.6 0.2
v 0 0.6 0.2
v -0.3 0.6 0.0999999
v -0.2 0.6 0.0999999
v -0.1 0.6 0.0999999
v -0.3 0.6 -5.96046e-08
v -0.2 0.6 -5.96046e-08
v -0.1 0.6 -5.96046e-08
v 0 0.6 -5.96046e-08
v -0.4 0.7 0.2
v -0.2 0.7 0.2
v -0.4 0.7 0.0999999
v -0.3 0.7 0.0999999
v -0.2 0.7 0.0999999
v -0.3 0.7 -5.96046e-08
v -0.2 0.7 -5.96046e-08
v -0.1 0.7 -5.96046e-08
v 0 0.7 -5.96046e-08
v -0.3 0.7 -0.1
v 0 0.7 -0.1
v -0.2 0.2 -5.96046e-08
v -0.1 0.2 -5.96046e-08
v -0.2 0.2 -0.1
v -0.1 0.2 -0.1
v -0.1 0.7 0.2
v 0 0.7 0.2
v -0.1 0.7 0.0999999
v 0 0.7 0.0999999
v -0.4 0.8 0.2
v -0.3 0.8 0.2
v -0.4 0.8 0.0999999
v -0.3 0.8 0.0999999
v -0.1 0.8 0.0999999
v 0 0.8 0.0999999
v -0.3 0.8 -5.96046e-08
v -0.1 0.8 -5.96046e-08
v -0.1 0.8 -0.1
v 0 0.8 -0.1
v -0.3 0.9 0.2
v -0.1 0.9 0.2
v -0.3 0.9 0.0999999
v -0.1 0.9 0.0999999
v -0.3 0.9 -5.96046e-08
v -0.1 0.9 -5.96046e-08
v -0.3 0.9 -0.1
v -0.1 0.9 -0.1

# faces
f 3/1/1 2/1/1 1/1/1
f 4/1/1 2/1/1 3/1/1
f 7/1/1 6/1/1 5/1/1
f 8/1/1 6/1/1 7/1/1
f 11/1/1 8/1/1 7/1/1
f 11/1/1 9/1/1 8/1/1
f 12/1/1 9/1/1 11/1/1
f 13/1/1 11/1/1 10/1/1
f 14/1/1 11/1/1 13/1/1
f 15/1/1 9/1/1 12/1/1
f 16/1/1 9/1/1 15/1/1
f 20/2/1 18/2/1 17/2/1
f 21/2/1 18/2/1 20/2/1
f 21/2/1 20/2/1 19/2/1
f 22/2/1 18/2/1 21/2/1
f 24/2/1 21/2/1 19/2/1
f 25/2/1 21/2/1 24/2/1
f 26/1/1 24/1/1 23/1/1
f 27/1/1 24/1/1 26/1/1
f 28/2/2 29/2/2 31/2/2
f 31/2/2 29/2/2 32/2/2
f 30/2/2 31/2/2 32/2/2
f 32/2/2 29/2/2 33/2/2
f 30/2/2 32/2/2 34/2/2
f 34/2/2 32/2/2 35/2/2
f 36/1/2 37/1/2 38/1/2
f 36/1/2 38/1/2 41/1/2
f 41/1/2 38/1/2 42/1/2
f 39/1/2 40/1/2 43/1/2
f 43/1/2 40/1/2 44/1/2
f 45/1/2 46/1/2 47/1/2
f 47/1/2 46/1/2 48/1/2
f 48/1/2 46/1/2 49/1/2
f 49/1/2 50/1/2 51/1/2
f 48/1/2 49/1/2 51/1/2
f 51/1/2 50/1/2 52/1/2
f 55/1/3 54/1/3 53/1/3
f 58/1/3 55/1/3 53/1/3
f 58/1/3 56/1/3 55/1/3
f 59/1/3 56/1/3 58/1/3
f 59/1/3 58/1/3 57/1/3
f 60/1/3 56/1/3 59/1/3
f 61/1/3 59/1/3 57/1/3
f 62/1/3 59/1/3 61/1/3
f 66/1/3 64/1/3 63/1/3
f 67/1/3 64/1/3 66/1/3
f 68/2/3 66/2/3 65/2/3
f 69/2/3 66/2/3 68/2/3
f 72/1/3 71/1/3 70/1/3
f 73/1/3 71/1/3 72/1/3
f 78/2/3 77/2/3 76/2/3
f 79/2/3 77/2/3 78/2/3
f 80/1/3 75/1/3 74/1/3
f 81/1/3 75/1/3 80/1/3
f 82/1/4 83/1/4 84/1/4
f 84/1/4 83/1/4 85/1/4
f 85/1/4 86/1/4 87/1/4
f 87/1/4 86/1/4 88/1/4
f 89/1/4 90/1/4 92/1/4
f 92/1/4 90/1/4 93/1/4
f 91/2/4 92/2/4 94/2/4
f 92/2/4 93/2/4 94/2/4
f 94/2/4 93/2/4 95/2/4
f 95/2/4 93/2/4 96/2/4
f 95/1/4 96/1/4 97/1/4
f 97/1/4 96/1/4 98/1/4
f 101/2/4 102/2/4 103/2/4
f 103/2/4 102/2/4 104/2/4
f 99/1/4 100/1/4 105/1/4
f 105/1/4 100/1/4 106/1/4
f 99/1/4 105/1/4 107/1/4
f 107/1/4 105/1/4 108/1/4
f 111/2/5 110/2/5 109/2/5
f 112/2/5 110/2/5 111/2/5
f 115/2/5 114/2/5 113/2/5
f 116/2/5 114/2/5 115/2/5
f 120/1/5 118/1/5 117/1/5
f 121/1/5 118/1/5 120/1/5
f 122/1/5 120/1/5 119/1/5
f 123/1/5 120/1/5 122/1/5
f 124/1/5 118/1/5 121/1/5
f 125/1/5 118/1/5 124/1/5
f 128/1/5 127/1/5 126/1/5
f 129/1/5 127/1/5 128/1/5
f 130/1/5 127/1/5 129/1/5
f 135/1/5 132/1/5 131/1/5
f 135/1/5 134/1/5 133/1/5
f 135/1/5 133/1/5 132/1/5
f 136/1/5 134/1/5 135/1/5
f 137/2/6 138/2/6 139/2/6
f 139/2/6 138/2/6 140/2/6
f 141/1/6 142/1/6 143/1/6
f 143/1/6 142/1/6 144/1/6
f 145/1/6 146/1/6 147/1/6
f 147/1/6 146/1/6 148/1/6
f 149/1/6 150/1/6 151/1/6
f 148/1/6 149/1/6 151/1/6
f 151/1/6 150/1/6 152/1/6
f 152/1/6 150/1/6 153/1/6
f 153/1/6 150/1/6 154/1/6
f 155/1/6 156/1/6 157/1/6
f 157/1/6 156/1/6 158/1/6
f 159/1/6 160/1/6 161/1/6
f 161/1/6 160/1/6 162/1/6
