# MagicaVoxel @ Ephtracy

# group
o 

# material
mtllib STUDIO1.mtl
usemtl palette

# normals
vn -1 0 0
vn 1 0 0
vn 0 0 1
vn 0 0 -1
vn 0 -1 0
vn 0 1 0

# texcoords
vt 0.990234 0.5
vt 0.994141 0.5

# verts
v -2.9 -0.1 1.5
v -2.9 -0.1 -2.1
v -2.9 0 1.5
v -2.9 0 -2.1
v -2.9 2.3 1.5
v -2.9 2.3 -2.1
v -2 0 1.5
v -2 0 1.4
v -2 0.9 1.5
v -2 0.9 1.4
v -1.1 0 1.4
v -1.1 0 -1.4
v -1.1 0 -1.8
v -1.1 0 -2
v -1.1 0.8 -1.4
v -1.1 0.8 -1.8
v -1.1 2.3 1.4
v -1.1 2.3 -2
v 2.2 0 1.4
v 2.2 0 -2
v 2.2 2.3 1.4
v 2.2 2.3 -2
v -2.8 0 1.4
v -2.8 0 -2
v -2.8 2.3 1.4
v -2.8 2.3 -2
v -2.6 0 1.5
v -2.6 0 1.4
v -2.6 0.9 1.5
v -2.6 0.9 1.4
v -1 0 1.4
v -1 0 -1.4
v -1 0 -1.8
v -1 0 -2
v -1 0.8 -1.4
v -1 0.8 -1.8
v -1 2.3 1.4
v -1 2.3 -2
v 2.3 -0.1 1.5
v 2.3 -0.1 -2.1
v 2.3 0 1.5
v 2.3 0 -2.1
v 2.3 2.3 1.5
v 2.3 2.3 -2.1
v -2.9 -0.1 1.5
v -2.9 0 1.5
v -2.9 2.3 1.5
v -2.6 0 1.5
v -2.6 0.9 1.5
v -2 0 1.5
v -2 0.9 1.5
v 2.3 -0.1 1.5
v 2.3 0 1.5
v 2.3 2.3 1.5
v -1.1 0 -1.8
v -1.1 0.8 -1.8
v -1 0 -1.8
v -1 0.8 -1.8
v -2.8 0 -2
v -2.8 2.3 -2
v -1.1 0 -2
v -1.1 2.3 -2
v -1 0 -2
v -1 2.3 -2
v 2.2 0 -2
v 2.2 2.3 -2
v -2.8 0 1.4
v -2.8 2.3 1.4
v -2.6 0 1.4
v -2.6 0.9 1.4
v -2 0 1.4
v -2 0.9 1.4
v -1.1 0 1.4
v -1.1 2.3 1.4
v -1 0 1.4
v -1 2.3 1.4
v 2.2 0 1.4
v 2.2 2.3 1.4
v -1.1 0 -1.4
v -1.1 0.8 -1.4
v -1 0 -1.4
v -1 0.8 -1.4
v -2.9 -0.1 -2.1
v -2.9 0 -2.1
v -2.9 2.3 -2.1
v 2.3 -0.1 -2.1
v 2.3 0 -2.1
v 2.3 2.3 -2.1
v -2.9 -0.1 1.5
v 2.3 -0.1 1.5
v -2.9 -0.1 -2.1
v 2.3 -0.1 -2.1
v -1.1 0.8 -1.4
v -1 0.8 -1.4
v -1.1 0.8 -1.8
v -1 0.8 -1.8
v -2.6 0.9 1.5
v -2 0.9 1.5
v -2.6 0.9 1.4
v -2 0.9 1.4
v -2.6 0 1.5
v -2 0 1.5
v -2.8 0 1.4
v -2.6 0 1.4
v -2 0 1.4
v -1.1 0 1.4
v -1 0 1.4
v 2.2 0 1.4
v -1.1 0 -1.4
v -1 0 -1.4
v -1.1 0 -1.8
v -1 0 -1.8
v -2.8 0 -2
v -1.1 0 -2
v -1 0 -2
v 2.2 0 -2
v -2.9 2.3 1.5
v 2.3 2.3 1.5
v -2.8 2.3 1.4
v -1.1 2.3 1.4
v -1 2.3 1.4
v 2.2 2.3 1.4
v -2.8 2.3 -2
v -1.1 2.3 -2
v -1 2.3 -2
v 2.2 2.3 -2
v -2.9 2.3 -2.1
v 2.3 2.3 -2.1

# faces
f 3/1/1 2/1/1 1/1/1
f 4/1/1 2/1/1 3/1/1
f 5/2/1 4/2/1 3/2/1
f 6/2/1 4/2/1 5/2/1
f 9/2/1 8/2/1 7/2/1
f 10/2/1 8/2/1 9/2/1
f 15/2/1 12/2/1 11/2/1
f 16/2/1 14/2/1 13/2/1
f 17/2/1 15/2/1 11/2/1
f 17/2/1 16/2/1 15/2/1
f 18/2/1 14/2/1 16/2/1
f 18/2/1 16/2/1 17/2/1
f 21/2/1 20/2/1 19/2/1
f 22/2/1 20/2/1 21/2/1
f 23/2/2 24/2/2 25/2/2
f 25/2/2 24/2/2 26/2/2
f 27/2/2 28/2/2 29/2/2
f 29/2/2 28/2/2 30/2/2
f 31/2/2 32/2/2 35/2/2
f 33/2/2 34/2/2 36/2/2
f 31/2/2 35/2/2 37/2/2
f 35/2/2 36/2/2 37/2/2
f 36/2/2 34/2/2 38/2/2
f 37/2/2 36/2/2 38/2/2
f 39/1/2 40/1/2 41/1/2
f 41/1/2 40/1/2 42/1/2
f 41/2/2 42/2/2 43/2/2
f 43/2/2 42/2/2 44/2/2
f 48/1/3 46/1/3 45/1/3
f 48/2/3 47/2/3 46/2/3
f 49/2/3 47/2/3 48/2/3
f 50/1/3 48/1/3 45/1/3
f 51/2/3 47/2/3 49/2/3
f 52/1/3 50/1/3 45/1/3
f 53/2/3 51/2/3 50/2/3
f 53/1/3 50/1/3 52/1/3
f 54/2/3 47/2/3 51/2/3
f 54/2/3 51/2/3 53/2/3
f 57/2/3 56/2/3 55/2/3
f 58/2/3 56/2/3 57/2/3
f 61/2/3 60/2/3 59/2/3
f 62/2/3 60/2/3 61/2/3
f 65/2/3 64/2/3 63/2/3
f 66/2/3 64/2/3 65/2/3
f 67/2/4 68/2/4 69/2/4
f 69/2/4 68/2/4 70/2/4
f 70/2/4 68/2/4 72/2/4
f 71/2/4 72/2/4 73/2/4
f 72/2/4 68/2/4 74/2/4
f 73/2/4 72/2/4 74/2/4
f 75/2/4 76/2/4 77/2/4
f 77/2/4 76/2/4 78/2/4
f 79/2/4 80/2/4 81/2/4
f 81/2/4 80/2/4 82/2/4
f 83/1/4 84/1/4 86/1/4
f 84/2/4 85/2/4 87/2/4
f 86/1/4 84/1/4 87/1/4
f 87/2/4 85/2/4 88/2/4
f 91/1/5 90/1/5 89/1/5
f 92/1/5 90/1/5 91/1/5
f 95/2/5 94/2/5 93/2/5
f 96/2/5 94/2/5 95/2/5
f 99/2/5 98/2/5 97/2/5
f 100/2/5 98/2/5 99/2/5
f 101/1/6 102/1/6 104/1/6
f 104/1/6 102/1/6 105/1/6
f 103/1/6 104/1/6 109/1/6
f 104/1/6 105/1/6 109/1/6
f 105/1/6 106/1/6 109/1/6
f 107/1/6 108/1/6 110/1/6
f 103/1/6 109/1/6 111/1/6
f 109/1/6 110/1/6 111/1/6
f 110/1/6 108/1/6 112/1/6
f 111/1/6 110/1/6 112/1/6
f 103/1/6 111/1/6 113/1/6
f 113/1/6 111/1/6 114/1/6
f 112/1/6 108/1/6 115/1/6
f 115/1/6 108/1/6 116/1/6
f 117/2/6 118/2/6 119/2/6
f 119/2/6 118/2/6 120/2/6
f 120/2/6 118/2/6 121/2/6
f 121/2/6 118/2/6 122/2/6
f 117/2/6 119/2/6 123/2/6
f 120/2/6 121/2/6 124/2/6
f 124/2/6 121/2/6 125/2/6
f 122/2/6 118/2/6 126/2/6
f 124/2/6 125/2/6 127/2/6
f 125/2/6 126/2/6 127/2/6
f 117/2/6 123/2/6 127/2/6
f 123/2/6 124/2/6 127/2/6
f 126/2/6 118/2/6 128/2/6
f 127/2/6 126/2/6 128/2/6
