# MagicaVoxel @ Ephtracy

# group
o 

# material
mtllib 123yyy.mtl
usemtl palette

# normals
vn -1 0 0
vn 1 0 0
vn 0 0 1
vn 0 0 -1
vn 0 -1 0
vn 0 1 0

# texcoords
vt 0.396484 0.5
vt 0.958984 0.5
vt 0.994141 0.5

# verts
v -1.5 0 -9.68575e-08
v -1.5 0 -3.1
v -1.5 1.1 -9.68575e-08
v -1.5 1.1 -3.1
v -1.4 0.5 -3.1
v -1.4 0.5 -3.2
v -1.4 0.7 -3.1
v -1.4 0.7 -3.2
v -0.9 0.1 -9.68575e-08
v -0.9 0.1 -0.1
v -0.9 0.4 -9.68575e-08
v -0.9 0.4 -0.1
v -0.0999999 0.1 -0.1
v -0.0999999 0.1 -2.5
v -0.0999999 0.1 -2.8
v -0.0999999 0.1 -3
v -0.0999999 0.4 -2.5
v -0.0999999 0.4 -2.8
v -0.0999999 1.1 -0.1
v -0.0999999 1.1 -3
v 3.1 0.1 -0.1
v 3.1 0.1 -3
v 3.1 1.1 -0.1
v 3.1 1.1 -3
v -1.4 0.1 -0.1
v -1.4 0.1 -3
v -1.4 1.1 -0.1
v -1.4 1.1 -3
v -1.3 0.5 -3.1
v -1.3 0.5 -3.2
v -1.3 0.7 -3.1
v -1.3 0.7 -3.2
v -1.2 0.1 -9.68575e-08
v -1.2 0.1 -0.1
v -1.2 0.4 -9.68575e-08
v -1.2 0.4 -0.1
v 1.19209e-07 0.1 -0.1
v 1.19209e-07 0.1 -2.5
v 1.19209e-07 0.1 -2.8
v 1.19209e-07 0.1 -3
v 1.19209e-07 0.4 -2.5
v 1.19209e-07 0.4 -2.8
v 1.19209e-07 1.1 -0.1
v 1.19209e-07 1.1 -3
v 3.2 0 -9.68575e-08
v 3.2 0 -0.1
v 3.2 0 -2.9
v 3.2 0 -3.1
v 3.2 0.1 -0.1
v 3.2 0.1 -2.9
v 3.2 1.1 -9.68575e-08
v 3.2 1.1 -3.1
v -1.5 0 -9.68575e-08
v -1.5 1.1 -9.68575e-08
v -1.2 0 -9.68575e-08
v -1.2 0.1 -9.68575e-08
v -1.2 0.4 -9.68575e-08
v -0.9 0 -9.68575e-08
v -0.9 0.1 -9.68575e-08
v -0.9 0.4 -9.68575e-08
v 3.2 0 -9.68575e-08
v 3.2 1.1 -9.68575e-08
v -0.0999999 0.1 -2.8
v -0.0999999 0.4 -2.8
v 1.19209e-07 0.1 -2.8
v 1.19209e-07 0.4 -2.8
v -1.4 0.1 -3
v -1.4 1.1 -3
v -0.0999999 0.1 -3
v -0.0999999 1.1 -3
v 1.19209e-07 0.1 -3
v 1.19209e-07 1.1 -3
v 3.1 0.1 -3
v 3.1 1.1 -3
v -1.4 0.1 -0.1
v -1.4 1.1 -0.1
v -1.2 0.1 -0.1
v -1.2 0.4 -0.1
v -0.9 0.1 -0.1
v -0.9 0.4 -0.1
v -0.0999999 0.1 -0.1
v -0.0999999 1.1 -0.1
v 1.19209e-07 0.1 -0.1
v 1.19209e-07 1.1 -0.1
v 3.1 0.1 -0.1
v 3.1 1.1 -0.1
v -0.0999999 0.1 -2.5
v -0.0999999 0.4 -2.5
v 1.19209e-07 0.1 -2.5
v 1.19209e-07 0.4 -2.5
v -1.5 0 -3.1
v -1.5 1.1 -3.1
v -1.4 0.5 -3.1
v -1.4 0.7 -3.1
v -1.3 0.5 -3.1
v -1.3 0.7 -3.1
v 3.2 0 -3.1
v 3.2 1.1 -3.1
v -1.4 0.5 -3.2
v -1.4 0.7 -3.2
v -1.3 0.5 -3.2
v -1.3 0.7 -3.2
v -1.5 0 -9.68575e-08
v -1.2 0 -9.68575e-08
v -0.9 0 -9.68575e-08
v 3.2 0 -9.68575e-08
v -1.4 0 -0.1
v -1.2 0 -0.1
v -0.9 0 -0.1
v -0.0999999 0 -0.1
v 1.19209e-07 0 -0.1
v 3.1 0 -0.1
v 3.2 0 -0.1
v -0.0999999 0 -2.3
v 1.19209e-07 0 -2.3
v -0.0999999 0 -2.5
v 1.19209e-07 0 -2.5
v -0.0999999 0 -2.8
v 1.19209e-07 0 -2.8
v 3.1 0 -2.9
v 3.2 0 -2.9
v -1.4 0 -3
v -0.0999999 0 -3
v 1.19209e-07 0 -3
v 3.1 0 -3
v -1.5 0 -3.1
v 3.2 0 -3.1
v -1.2 0.4 -9.68575e-08
v -0.9 0.4 -9.68575e-08
v -1.2 0.4 -0.1
v -0.9 0.4 -0.1
v -0.0999999 0.4 -2.5
v 1.19209e-07 0.4 -2.5
v -0.0999999 0.4 -2.8
v 1.19209e-07 0.4 -2.8
v -1.4 0.5 -3.1
v -1.3 0.5 -3.1
v -1.4 0.5 -3.2
v -1.3 0.5 -3.2
v -1.2 0.1 -9.68575e-08
v -0.9 0.1 -9.68575e-08
v -1.4 0.1 -0.1
v -1.2 0.1 -0.1
v -0.9 0.1 -0.1
v -0.0999999 0.1 -0.1
v 1.19209e-07 0.1 -0.1
v 3.1 0.1 -0.1
v -0.0999999 0.1 -2.5
v 1.19209e-07 0.1 -2.5
v -0.0999999 0.1 -2.8
v 1.19209e-07 0.1 -2.8
v -1.4 0.1 -3
v -0.0999999 0.1 -3
v 1.19209e-07 0.1 -3
v 3.1 0.1 -3
v -1.4 0.7 -3.1
v -1.3 0.7 -3.1
v -1.4 0.7 -3.2
v -1.3 0.7 -3.2
v -1.5 1.1 -9.68575e-08
v 3.2 1.1 -9.68575e-08
v -1.4 1.1 -0.1
v -0.0999999 1.1 -0.1
v 1.19209e-07 1.1 -0.1
v 3.1 1.1 -0.1
v -1.4 1.1 -3
v -0.0999999 1.1 -3
v 1.19209e-07 1.1 -3
v 3.1 1.1 -3
v -1.5 1.1 -3.1
v 3.2 1.1 -3.1

# faces
f 3/1/1 2/1/1 1/1/1
f 4/1/1 2/1/1 3/1/1
f 7/1/1 6/1/1 5/1/1
f 8/1/1 6/1/1 7/1/1
f 11/1/1 10/1/1 9/1/1
f 12/1/1 10/1/1 11/1/1
f 17/1/1 14/1/1 13/1/1
f 18/1/1 16/1/1 15/1/1
f 19/1/1 17/1/1 13/1/1
f 19/1/1 18/1/1 17/1/1
f 20/1/1 16/1/1 18/1/1
f 20/1/1 18/1/1 19/1/1
f 23/1/1 22/1/1 21/1/1
f 24/1/1 22/1/1 23/1/1
f 25/1/2 26/1/2 27/1/2
f 27/1/2 26/1/2 28/1/2
f 29/1/2 30/1/2 31/1/2
f 31/1/2 30/1/2 32/1/2
f 33/1/2 34/1/2 35/1/2
f 35/1/2 34/1/2 36/1/2
f 37/1/2 38/1/2 41/1/2
f 39/1/2 40/1/2 42/1/2
f 37/1/2 41/1/2 43/1/2
f 41/1/2 42/1/2 43/1/2
f 42/1/2 40/1/2 44/1/2
f 43/1/2 42/1/2 44/1/2
f 45/1/2 46/1/2 49/1/2
f 46/3/2 47/3/2 49/3/2
f 47/1/2 48/1/2 50/1/2
f 49/3/2 47/3/2 50/3/2
f 45/1/2 49/1/2 51/1/2
f 49/1/2 50/1/2 51/1/2
f 50/1/2 48/1/2 52/1/2
f 51/1/2 50/1/2 52/1/2
f 55/1/3 54/1/3 53/1/3
f 56/1/3 54/1/3 55/1/3
f 57/1/3 54/1/3 56/1/3
f 58/2/3 56/2/3 55/2/3
f 59/2/3 56/2/3 58/2/3
f 60/1/3 54/1/3 57/1/3
f 61/1/3 59/1/3 58/1/3
f 61/1/3 60/1/3 59/1/3
f 62/1/3 54/1/3 60/1/3
f 62/1/3 60/1/3 61/1/3
f 65/1/3 64/1/3 63/1/3
f 66/1/3 64/1/3 65/1/3
f 69/1/3 68/1/3 67/1/3
f 70/1/3 68/1/3 69/1/3
f 73/1/3 72/1/3 71/1/3
f 74/1/3 72/1/3 73/1/3
f 75/1/4 76/1/4 77/1/4
f 77/1/4 76/1/4 78/1/4
f 78/1/4 76/1/4 80/1/4
f 79/1/4 80/1/4 81/1/4
f 80/1/4 76/1/4 82/1/4
f 81/1/4 80/1/4 82/1/4
f 83/1/4 84/1/4 85/1/4
f 85/1/4 84/1/4 86/1/4
f 87/1/4 88/1/4 89/1/4
f 89/1/4 88/1/4 90/1/4
f 91/1/4 92/1/4 93/1/4
f 93/1/4 92/1/4 94/1/4
f 91/1/4 93/1/4 95/1/4
f 94/1/4 92/1/4 96/1/4
f 91/1/4 95/1/4 97/1/4
f 95/1/4 96/1/4 97/1/4
f 96/1/4 92/1/4 98/1/4
f 97/1/4 96/1/4 98/1/4
f 99/1/4 100/1/4 101/1/4
f 101/1/4 100/1/4 102/1/4
f 107/1/5 104/1/5 103/1/5
f 108/2/5 105/2/5 104/2/5
f 108/1/5 104/1/5 107/1/5
f 109/1/5 106/1/5 105/1/5
f 109/2/5 105/2/5 108/2/5
f 110/1/5 106/1/5 109/1/5
f 111/1/5 106/1/5 110/1/5
f 112/1/5 106/1/5 111/1/5
f 113/1/5 106/1/5 112/1/5
f 114/2/5 108/2/5 107/2/5
f 114/2/5 109/2/5 108/2/5
f 114/2/5 110/2/5 109/2/5
f 114/3/5 111/3/5 110/3/5
f 115/2/5 112/2/5 111/2/5
f 115/3/5 111/3/5 114/3/5
f 116/2/5 114/2/5 107/2/5
f 116/1/5 115/1/5 114/1/5
f 117/2/5 112/2/5 115/2/5
f 117/1/5 115/1/5 116/1/5
f 118/2/5 116/2/5 107/2/5
f 118/2/5 117/2/5 116/2/5
f 119/2/5 112/2/5 117/2/5
f 119/2/5 117/2/5 118/2/5
f 120/3/5 113/3/5 112/3/5
f 120/2/5 112/2/5 119/2/5
f 121/3/5 113/3/5 120/3/5
f 122/1/5 107/1/5 103/1/5
f 122/2/5 118/2/5 107/2/5
f 123/3/5 119/3/5 118/3/5
f 123/2/5 118/2/5 122/2/5
f 124/2/5 120/2/5 119/2/5
f 124/3/5 119/3/5 123/3/5
f 125/1/5 121/1/5 120/1/5
f 125/2/5 120/2/5 124/2/5
f 126/1/5 122/1/5 103/1/5
f 126/1/5 124/1/5 123/1/5
f 126/1/5 125/1/5 124/1/5
f 126/1/5 123/1/5 122/1/5
f 127/1/5 121/1/5 125/1/5
f 127/1/5 125/1/5 126/1/5
f 130/1/5 129/1/5 128/1/5
f 131/1/5 129/1/5 130/1/5
f 134/1/5 133/1/5 132/1/5
f 135/1/5 133/1/5 134/1/5
f 138/1/5 137/1/5 136/1/5
f 139/1/5 137/1/5 138/1/5
f 140/2/6 141/2/6 143/2/6
f 143/2/6 141/2/6 144/2/6
f 142/2/6 143/2/6 148/2/6
f 143/2/6 144/2/6 148/2/6
f 144/2/6 145/2/6 148/2/6
f 146/2/6 147/2/6 149/2/6
f 142/2/6 148/2/6 150/2/6
f 148/2/6 149/2/6 150/2/6
f 149/2/6 147/2/6 151/2/6
f 150/2/6 149/2/6 151/2/6
f 142/2/6 150/2/6 152/2/6
f 152/2/6 150/2/6 153/2/6
f 151/2/6 147/2/6 154/2/6
f 154/2/6 147/2/6 155/2/6
f 156/1/6 157/1/6 158/1/6
f 158/1/6 157/1/6 159/1/6
f 160/1/6 161/1/6 162/1/6
f 162/1/6 161/1/6 163/1/6
f 163/1/6 161/1/6 164/1/6
f 164/1/6 161/1/6 165/1/6
f 160/1/6 162/1/6 166/1/6
f 163/1/6 164/1/6 167/1/6
f 167/1/6 164/1/6 168/1/6
f 165/1/6 161/1/6 169/1/6
f 167/1/6 168/1/6 170/1/6
f 168/1/6 169/1/6 170/1/6
f 160/1/6 166/1/6 170/1/6
f 166/1/6 167/1/6 170/1/6
f 169/1/6 161/1/6 171/1/6
f 170/1/6 169/1/6 171/1/6
