# MagicaVoxel @ Ephtracy

# group
o 

# material
mtllib DOOR.mtl
usemtl palette

# normals
vn -1 0 0
vn 1 0 0
vn 0 0 1
vn 0 0 -1
vn 0 -1 0
vn 0 1 0

# texcoords
vt 0.537109 0.5
vt 0.958984 0.5
vt 0.962891 0.5
vt 0.994141 0.5

# verts
v -0.4 0 1.3
v -0.4 0 1
v -0.4 0 0.4
v -0.4 0 0.0999999
v -0.4 0.1 1.3
v -0.4 0.1 1
v -0.4 0.1 0.4
v -0.4 0.1 0.0999999
v -0.1 0.5 2
v -0.1 0.5 1.9
v -0.1 0.6 2
v -0.1 0.6 1.9
v -0.1 1.7 1.2
v -0.1 1.7 1
v -0.1 1.7 0.0999999
v -0.1 1.7 -2.38419e-07
v -0.1 1.8 1
v -0.1 1.8 0.0999999
v -0.1 1.8 -2.38419e-07
v -0.1 1.9 1.2
v -0.1 1.9 1.1
v -0.1 1.9 1
v -0.1 1.9 0.2
v -0.1 2 1.1
v -0.1 2 1
v -0.1 2 0.2
v -0.1 2 0.0999999
v -0.1 3.2 0.8
v -0.1 3.2 0.3
v -0.1 3.3 0.7
v -0.1 3.3 0.4
v -0.1 3.5 0.8
v -0.1 3.5 0.7
v -0.1 3.5 0.6
v -0.1 3.5 0.5
v -0.1 3.5 0.4
v -0.1 3.5 0.3
v -0.1 3.6 0.7
v -0.1 3.6 0.6
v -0.1 3.6 0.5
v -0.1 3.6 0.4
v -0.1 3.7 0.7
v -0.1 3.7 0.6
v -0.1 3.7 0.5
v -0.1 3.7 0.4
v 0 0.1 0.3
v 0 0.1 0.2
v 0 1.6 1.2
v 0 1.6 1.1
v 0 1.7 1.2
v 0 1.7 1.1
v 0 1.7 0.3
v 0 1.7 0.2
v 0 1.9 1
v 0 1.9 0.2
v 0 2 1
v 0 2 0.2
v 0 2 -0.7
v 0 2 -0.8
v 0 2.2 1.9
v 0 2.2 1.8
v 0 3 0.2
v 0 3 -0.7
v 0 3.1 1.8
v 0 3.1 1
v 0 3.1 0.2
v 0 3.1 -0.8
v 0 3.2 1.9
v 0 3.2 1
v 0 3.2 0.8
v 0 3.2 0.3
v 0 3.3 0.7
v 0 3.3 0.4
v 0 3.5 0.8
v 0 3.5 0.7
v 0 3.5 0.6
v 0 3.5 0.5
v 0 3.5 0.4
v 0 3.5 0.3
v 0 3.6 0.7
v 0 3.6 0.6
v 0 3.6 0.5
v 0 3.6 0.4
v 0 3.7 0.7
v 0 3.7 0.6
v 0 3.7 0.5
v 0 3.7 0.4
v 0 3.8 1
v 0 3.8 0.2
v 0 3.9 1
v 0 3.9 0.2
v 0.1 0.1 1.2
v 0.1 0.1 1.1
v 0.1 1.6 1.2
v 0.1 1.6 1.1
v 0.1 1.6 0.3
v 0.1 1.7 0.3
v 0.1 1.7 0.2
v 0.1 1.7 0.0999999
v 0.1 1.8 1.1
v 0.1 1.8 0.0999999
v 0.5 0 0.3
v 0.5 0 0.2
v 0.5 0.1 0.3
v 0.5 0.1 0.2
v 0.9 0 1
v 0.9 0 0.9
v 0.9 0.1 1
v 0.9 0.1 0.9
v 1.5 2.2 2
v 1.5 2.2 1.9
v 1.5 2.3 2
v 1.5 2.3 1.9
v 1.6 3.6 2
v 1.6 3.6 1.9
v 1.6 3.7 2
v 1.6 3.7 1.9
v 1.9 3.4 0.7
v 1.9 3.4 0.6
v 1.9 3.5 0.7
v 1.9 3.5 0.6
v 0 0.5 2
v 0 0.5 1.9
v 0 0.6 2
v 0 0.6 1.9
v 0 1.7 1.1
v 0 1.7 1
v 0 1.8 1.1
v 0 1.8 1
v 0 1.9 1.1
v 0 1.9 1
v 0 1.9 0.2
v 0 1.9 0.0999999
v 0 2 1.1
v 0 2 1
v 0 2 0.2
v 0 2 0.0999999
v 0.1 0.1 0.3
v 0.1 0.1 0.2
v 0.1 1.6 0.3
v 0.1 1.6 0.2
v 0.1 1.8 1.2
v 0.1 1.8 1.1
v 0.1 1.8 1
v 0.1 1.8 0.0999999
v 0.1 1.9 1.2
v 0.1 1.9 1.1
v 0.1 1.9 1
v 0.1 1.9 0.2
v 0.1 1.9 0.0999999
v 0.1 2 -0.7
v 0.1 2 -0.8
v 0.1 2.2 1.9
v 0.1 2.2 1.8
v 0.1 3 0.2
v 0.1 3 -0.7
v 0.1 3.1 1.8
v 0.1 3.1 1
v 0.1 3.1 0.2
v 0.1 3.1 -0.8
v 0.1 3.2 1.9
v 0.1 3.2 1
v 0.1 3.8 1
v 0.1 3.8 0.2
v 0.1 3.9 1
v 0.1 3.9 0.2
v 0.2 0.2 1.2
v 0.2 0.2 1.1
v 0.2 1.6 1.1
v 0.2 1.6 0.2
v 0.2 1.7 0.2
v 0.2 1.7 -2.38419e-07
v 0.2 1.8 1.2
v 0.2 1.8 1.1
v 0.2 1.8 1
v 0.2 1.8 -2.38419e-07
v 0.2 1.9 1.1
v 0.2 1.9 1
v 0.3 0.1 1.2
v 0.3 0.1 1.1
v 0.3 0.2 1.2
v 0.3 0.2 1.1
v 0.4 0 0.3
v 0.4 0 0.0999999
v 0.4 0.1 0.3
v 0.4 0.1 0.0999999
v 0.5 0 1.3
v 0.5 0 1
v 0.5 0.1 1.3
v 0.5 0.1 1
v 0.6 0 0.4
v 0.6 0 0.3
v 0.6 0.1 0.4
v 0.6 0.1 0.3
v 0.7 0 0.3
v 0.7 0 0.2
v 0.7 0.1 0.3
v 0.7 0.1 0.2
v 1.1 0 1
v 1.1 0 0.9
v 1.1 0.1 1
v 1.1 0.1 0.9
v 1.6 2.2 2
v 1.6 2.2 1.9
v 1.6 2.3 2
v 1.6 2.3 1.9
v 1.7 3.6 2
v 1.7 3.6 1.9
v 1.7 3.7 2
v 1.7 3.7 1.9
v 2 3.4 0.7
v 2 3.4 0.6
v 2 3.5 0.7
v 2 3.5 0.6
v -0.1 0.5 2
v -0.1 0.6 2
v 0 0.5 2
v 0 0.6 2
v 1.5 2.2 2
v 1.5 2.3 2
v 1.6 2.2 2
v 1.6 2.3 2
v 1.6 3.6 2
v 1.6 3.7 2
v 1.7 3.6 2
v 1.7 3.7 2
v 0 2.2 1.9
v 0 3.2 1.9
v 0.1 2.2 1.9
v 0.1 3.2 1.9
v -0.4 0 1.3
v -0.4 0.1 1.3
v 0.5 0 1.3
v 0.5 0.1 1.3
v -0.1 1.7 1.2
v -0.1 1.9 1.2
v 0 1.6 1.2
v 0 1.7 1.2
v 0.1 0.1 1.2
v 0.1 1.6 1.2
v 0.1 1.8 1.2
v 0.1 1.9 1.2
v 0.2 0.2 1.2
v 0.2 1.8 1.2
v 0.3 0.1 1.2
v 0.3 0.2 1.2
v -0.1 1.9 1.1
v -0.1 2 1.1
v 0 1.9 1.1
v 0 2 1.1
v 0.1 1.8 1.1
v 0.1 1.9 1.1
v 0.2 1.8 1.1
v 0.2 1.9 1.1
v 0 1.9 1
v 0 2 1
v 0 3.1 1
v 0 3.2 1
v 0 3.8 1
v 0 3.9 1
v 0.1 1.9 1
v 0.1 3.1 1
v 0.1 3.2 1
v 0.1 3.8 1
v 0.1 3.9 1
v 0.9 0 1
v 0.9 0.1 1
v 1.1 0 1
v 1.1 0.1 1
v -0.1 3.2 0.8
v -0.1 3.5 0.8
v 0 3.2 0.8
v 0 3.5 0.8
v -0.1 3.6 0.7
v -0.1 3.7 0.7
v 0 3.6 0.7
v 0 3.7 0.7
v 1.9 3.4 0.7
v 1.9 3.5 0.7
v 2 3.4 0.7
v 2 3.5 0.7
v -0.1 3.5 0.6
v -0.1 3.6 0.6
v 0 3.5 0.6
v 0 3.6 0.6
v -0.1 3.6 0.5
v -0.1 3.7 0.5
v 0 3.6 0.5
v 0 3.7 0.5
v -0.4 0 0.4
v -0.4 0.1 0.4
v -0.1 3.3 0.4
v -0.1 3.5 0.4
v 0 3.3 0.4
v 0 3.5 0.4
v 0.6 0 0.4
v 0.6 0.1 0.4
v 0 0.1 0.3
v 0 1.7 0.3
v 0.1 0.1 0.3
v 0.1 1.6 0.3
v 0.1 1.7 0.3
v 0.6 0 0.3
v 0.6 0.1 0.3
v 0.7 0 0.3
v 0.7 0.1 0.3
v -0.1 1.9 0.2
v -0.1 2 0.2
v 0 1.9 0.2
v 0 2 0.2
v -0.1 1.7 0.0999999
v -0.1 1.8 0.0999999
v 0.1 1.7 0.0999999
v 0.1 1.8 0.0999999
v 0 2 -0.7
v 0 3 -0.7
v 0.1 2 -0.7
v 0.1 3 -0.7
v -0.1 0.5 1.9
v -0.1 0.6 1.9
v 0 0.5 1.9
v 0 0.6 1.9
v 1.5 2.2 1.9
v 1.5 2.3 1.9
v 1.6 2.2 1.9
v 1.6 2.3 1.9
v 1.6 3.6 1.9
v 1.6 3.7 1.9
v 1.7 3.6 1.9
v 1.7 3.7 1.9
v 0 2.2 1.8
v 0 3.1 1.8
v 0.1 2.2 1.8
v 0.1 3.1 1.8
v 0 1.6 1.1
v 0 1.7 1.1
v 0 1.8 1.1
v 0.1 0.1 1.1
v 0.1 1.6 1.1
v 0.1 1.8 1.1
v 0.2 0.2 1.1
v 0.2 1.6 1.1
v 0.3 0.1 1.1
v 0.3 0.2 1.1
v -0.4 0 1
v -0.4 0.1 1
v -0.1 1.7 1
v -0.1 1.8 1
v -0.1 1.9 1
v -0.1 2 1
v 0 1.7 1
v 0 1.8 1
v 0 1.9 1
v 0 2 1
v 0.1 1.8 1
v 0.1 1.9 1
v 0.2 1.8 1
v 0.2 1.9 1
v 0.5 0 1
v 0.5 0.1 1
v 0.9 0 0.9
v 0.9 0.1 0.9
v 1.1 0 0.9
v 1.1 0.1 0.9
v -0.1 3.3 0.7
v -0.1 3.5 0.7
v 0 3.3 0.7
v 0 3.5 0.7
v -0.1 3.6 0.6
v -0.1 3.7 0.6
v 0 3.6 0.6
v 0 3.7 0.6
v 1.9 3.4 0.6
v 1.9 3.5 0.6
v 2 3.4 0.6
v 2 3.5 0.6
v -0.1 3.5 0.5
v -0.1 3.6 0.5
v 0 3.5 0.5
v 0 3.6 0.5
v -0.1 3.6 0.4
v -0.1 3.7 0.4
v 0 3.6 0.4
v 0 3.7 0.4
v -0.1 3.2 0.3
v -0.1 3.5 0.3
v 0 3.2 0.3
v 0 3.5 0.3
v 0.4 0 0.3
v 0.4 0.1 0.3
v 0.5 0 0.3
v 0.5 0.1 0.3
v 0 0.1 0.2
v 0 1.7 0.2
v 0 1.9 0.2
v 0 2 0.2
v 0 3 0.2
v 0 3.1 0.2
v 0 3.8 0.2
v 0 3.9 0.2
v 0.1 0.1 0.2
v 0.1 1.6 0.2
v 0.1 1.7 0.2
v 0.1 1.9 0.2
v 0.1 3 0.2
v 0.1 3.1 0.2
v 0.1 3.8 0.2
v 0.1 3.9 0.2
v 0.2 1.6 0.2
v 0.2 1.7 0.2
v 0.5 0 0.2
v 0.5 0.1 0.2
v 0.7 0 0.2
v 0.7 0.1 0.2
v -0.4 0 0.0999999
v -0.4 0.1 0.0999999
v -0.1 1.8 0.0999999
v -0.1 2 0.0999999
v 0 1.9 0.0999999
v 0 2 0.0999999
v 0.1 1.8 0.0999999
v 0.1 1.9 0.0999999
v 0.4 0 0.0999999
v 0.4 0.1 0.0999999
v -0.1 1.7 -2.38419e-07
v -0.1 1.8 -2.38419e-07
v 0.2 1.7 -2.38419e-07
v 0.2 1.8 -2.38419e-07
v 0 2 -0.8
v 0 3.1 -0.8
v 0.1 2 -0.8
v 0.1 3.1 -0.8
v -0.4 0 1.3
v 0.5 0 1.3
v -0.4 0 1
v 0.5 0 1
v 0.9 0 1
v 1.1 0 1
v 0.9 0 0.9
v 1.1 0 0.9
v -0.4 0 0.4
v 0.6 0 0.4
v 0.4 0 0.3
v 0.5 0 0.3
v 0.6 0 0.3
v 0.7 0 0.3
v 0.5 0 0.2
v 0.7 0 0.2
v -0.4 0 0.0999999
v 0.4 0 0.0999999
v -0.1 0.5 2
v 0 0.5 2
v -0.1 0.5 1.9
v 0 0.5 1.9
v 0 1.6 1.2
v 0.1 1.6 1.2
v 0 1.6 1.1
v 0.1 1.6 1.1
v 0.2 1.6 1.1
v 0.1 1.6 0.3
v 0.1 1.6 0.2
v 0.2 1.6 0.2
v -0.1 1.7 1.2
v 0 1.7 1.2
v 0 1.7 1.1
v -0.1 1.7 1
v 0 1.7 1
v 0.1 1.7 0.2
v 0.2 1.7 0.2
v -0.1 1.7 0.0999999
v 0.1 1.7 0.0999999
v -0.1 1.7 -2.38419e-07
v 0.2 1.7 -2.38419e-07
v 0 1.8 1.1
v 0.1 1.8 1.1
v -0.1 1.8 1
v 0 1.8 1
v -0.1 1.8 0.0999999
v 0.1 1.8 0.0999999
v 0 2 -0.7
v 0.1 2 -0.7
v 0 2 -0.8
v 0.1 2 -0.8
v 1.5 2.2 2
v 1.6 2.2 2
v 0 2.2 1.9
v 0.1 2.2 1.9
v 1.5 2.2 1.9
v 1.6 2.2 1.9
v 0 2.2 1.8
v 0.1 2.2 1.8
v 0 3 0.2
v 0.1 3 0.2
v 0 3 -0.7
v 0.1 3 -0.7
v 0 3.1 1.8
v 0.1 3.1 1.8
v 0 3.1 1
v 0.1 3.1 1
v -0.1 3.2 0.8
v 0 3.2 0.8
v -0.1 3.2 0.3
v 0 3.2 0.3
v 1.9 3.4 0.7
v 2 3.4 0.7
v 1.9 3.4 0.6
v 2 3.4 0.6
v -0.1 3.5 0.6
v 0 3.5 0.6
v -0.1 3.5 0.5
v 0 3.5 0.5
v 1.6 3.6 2
v 1.7 3.6 2
v 1.6 3.6 1.9
v 1.7 3.6 1.9
v -0.1 3.6 0.7
v 0 3.6 0.7
v -0.1 3.6 0.6
v 0 3.6 0.6
v -0.1 3.6 0.5
v 0 3.6 0.5
v -0.1 3.6 0.4
v 0 3.6 0.4
v -0.4 0.1 1.3
v 0.5 0.1 1.3
v 0.1 0.1 1.2
v 0.3 0.1 1.2
v 0.1 0.1 1.1
v 0.3 0.1 1.1
v -0.4 0.1 1
v 0.5 0.1 1
v 0.9 0.1 1
v 1.1 0.1 1
v 0.9 0.1 0.9
v 1.1 0.1 0.9
v -0.4 0.1 0.4
v 0.6 0.1 0.4
v 0 0.1 0.3
v 0.1 0.1 0.3
v 0.4 0.1 0.3
v 0.5 0.1 0.3
v 0.6 0.1 0.3
v 0.7 0.1 0.3
v 0 0.1 0.2
v 0.1 0.1 0.2
v 0.5 0.1 0.2
v 0.7 0.1 0.2
v -0.4 0.1 0.0999999
v 0.4 0.1 0.0999999
v 0.2 0.2 1.2
v 0.3 0.2 1.2
v 0.2 0.2 1.1
v 0.3 0.2 1.1
v -0.1 0.6 2
v 0 0.6 2
v -0.1 0.6 1.9
v 0 0.6 1.9
v 0 1.7 0.3
v 0.1 1.7 0.3
v 0 1.7 0.2
v 0.1 1.7 0.2
v 0.1 1.8 1.2
v 0.2 1.8 1.2
v 0.1 1.8 1.1
v 0.2 1.8 1.1
v 0.1 1.8 1
v 0.2 1.8 1
v -0.1 1.8 0.0999999
v 0.1 1.8 0.0999999
v -0.1 1.8 -2.38419e-07
v 0.2 1.8 -2.38419e-07
v -0.1 1.9 1.2
v 0.1 1.9 1.2
v -0.1 1.9 1.1
v 0 1.9 1.1
v 0.1 1.9 1.1
v 0.2 1.9 1.1
v -0.1 1.9 1
v 0 1.9 1
v 0.1 1.9 1
v 0.2 1.9 1
v -0.1 1.9 0.2
v 0 1.9 0.2
v 0.1 1.9 0.2
v 0 1.9 0.0999999
v 0.1 1.9 0.0999999
v -0.1 2 1.1
v 0 2 1.1
v -0.1 2 1
v 0 2 1
v -0.1 2 0.2
v 0 2 0.2
v -0.1 2 0.0999999
v 0 2 0.0999999
v 1.5 2.3 2
v 1.6 2.3 2
v 1.5 2.3 1.9
v 1.6 2.3 1.9
v 0 3.1 0.2
v 0.1 3.1 0.2
v 0 3.1 -0.8
v 0.1 3.1 -0.8
v 0 3.2 1.9
v 0.1 3.2 1.9
v 0 3.2 1
v 0.1 3.2 1
v -0.1 3.3 0.7
v 0 3.3 0.7
v -0.1 3.3 0.4
v 0 3.3 0.4
v -0.1 3.5 0.8
v 0 3.5 0.8
v -0.1 3.5 0.7
v 0 3.5 0.7
v 1.9 3.5 0.7
v 2 3.5 0.7
v 1.9 3.5 0.6
v 2 3.5 0.6
v -0.1 3.5 0.4
v 0 3.5 0.4
v -0.1 3.5 0.3
v 0 3.5 0.3
v -0.1 3.6 0.6
v 0 3.6 0.6
v -0.1 3.6 0.5
v 0 3.6 0.5
v 1.6 3.7 2
v 1.7 3.7 2
v 1.6 3.7 1.9
v 1.7 3.7 1.9
v -0.1 3.7 0.7
v 0 3.7 0.7
v -0.1 3.7 0.6
v 0 3.7 0.6
v -0.1 3.7 0.5
v 0 3.7 0.5
v -0.1 3.7 0.4
v 0 3.7 0.4
v 0 3.9 1
v 0.1 3.9 1
v 0 3.9 0.2
v 0.1 3.9 0.2

# faces
f 5/3/1 2/3/1 1/3/1
f 6/3/1 2/3/1 5/3/1
f 7/3/1 4/3/1 3/3/1
f 8/3/1 4/3/1 7/3/1
f 11/3/1 10/3/1 9/3/1
f 12/3/1 10/3/1 11/3/1
f 17/3/1 14/3/1 13/3/1
f 18/3/1 16/3/1 15/3/1
f 19/3/1 16/3/1 18/3/1
f 20/3/1 17/3/1 13/3/1
f 20/3/1 18/3/1 17/3/1
f 21/3/1 18/3/1 20/3/1
f 22/3/1 18/3/1 21/3/1
f 23/3/1 18/3/1 22/3/1
f 24/3/1 22/3/1 21/3/1
f 25/3/1 22/3/1 24/3/1
f 26/3/1 18/3/1 23/3/1
f 27/3/1 18/3/1 26/3/1
f 30/4/1 29/4/1 28/4/1
f 31/4/1 29/4/1 30/4/1
f 32/4/1 30/4/1 28/4/1
f 33/4/1 30/4/1 32/4/1
f 36/4/1 29/4/1 31/4/1
f 37/4/1 29/4/1 36/4/1
f 39/4/1 35/4/1 34/4/1
f 40/4/1 35/4/1 39/4/1
f 42/4/1 39/4/1 38/4/1
f 43/4/1 39/4/1 42/4/1
f 44/4/1 41/4/1 40/4/1
f 45/4/1 41/4/1 44/4/1
f 50/3/1 49/3/1 48/3/1
f 51/3/1 49/3/1 50/3/1
f 52/3/1 47/3/1 46/3/1
f 53/3/1 47/3/1 52/3/1
f 56/3/1 55/3/1 54/3/1
f 57/3/1 55/3/1 56/3/1
f 62/3/1 57/3/1 56/3/1
f 63/3/1 59/3/1 58/3/1
f 64/3/1 61/3/1 60/3/1
f 65/3/1 63/3/1 62/3/1
f 65/3/1 62/3/1 56/3/1
f 66/3/1 63/3/1 65/3/1
f 67/3/1 59/3/1 63/3/1
f 67/3/1 63/3/1 66/3/1
f 68/3/1 64/3/1 60/3/1
f 68/3/1 65/3/1 64/3/1
f 69/2/1 66/2/1 65/2/1
f 69/3/1 65/3/1 68/3/1
f 70/2/1 66/2/1 69/2/1
f 71/2/1 66/2/1 70/2/1
f 74/2/1 70/2/1 69/2/1
f 75/2/1 73/2/1 72/2/1
f 76/2/1 73/2/1 75/2/1
f 77/2/1 73/2/1 76/2/1
f 78/2/1 73/2/1 77/2/1
f 79/2/1 66/2/1 71/2/1
f 80/2/1 75/2/1 74/2/1
f 80/2/1 76/2/1 75/2/1
f 81/2/1 76/2/1 80/2/1
f 82/2/1 78/2/1 77/2/1
f 82/2/1 79/2/1 78/2/1
f 83/2/1 79/2/1 82/2/1
f 84/2/1 80/2/1 74/2/1
f 85/2/1 82/2/1 81/2/1
f 86/2/1 82/2/1 85/2/1
f 87/2/1 79/2/1 83/2/1
f 88/2/1 86/2/1 85/2/1
f 88/2/1 87/2/1 86/2/1
f 88/2/1 74/2/1 69/2/1
f 88/2/1 84/2/1 74/2/1
f 88/2/1 85/2/1 84/2/1
f 89/2/1 79/2/1 87/2/1
f 89/2/1 87/2/1 88/2/1
f 89/2/1 66/2/1 79/2/1
f 90/1/1 89/1/1 88/1/1
f 91/1/1 89/1/1 90/1/1
f 94/3/1 93/3/1 92/3/1
f 95/3/1 93/3/1 94/3/1
f 97/3/1 96/3/1 95/3/1
f 100/3/1 97/3/1 95/3/1
f 100/3/1 99/3/1 98/3/1
f 100/3/1 98/3/1 97/3/1
f 101/3/1 99/3/1 100/3/1
f 104/3/1 103/3/1 102/3/1
f 105/3/1 103/3/1 104/3/1
f 108/3/1 107/3/1 106/3/1
f 109/3/1 107/3/1 108/3/1
f 112/3/1 111/3/1 110/3/1
f 113/3/1 111/3/1 112/3/1
f 116/3/1 115/3/1 114/3/1
f 117/3/1 115/3/1 116/3/1
f 120/3/1 119/3/1 118/3/1
f 121/3/1 119/3/1 120/3/1
f 122/3/2 123/3/2 124/3/2
f 124/3/2 123/3/2 125/3/2
f 126/3/2 127/3/2 128/3/2
f 128/3/2 127/3/2 129/3/2
f 130/3/2 131/3/2 134/3/2
f 134/3/2 131/3/2 135/3/2
f 132/3/2 133/3/2 136/3/2
f 136/3/2 133/3/2 137/3/2
f 138/3/2 139/3/2 140/3/2
f 140/3/2 139/3/2 141/3/2
f 142/3/2 143/3/2 146/3/2
f 146/3/2 143/3/2 147/3/2
f 144/3/2 145/3/2 148/3/2
f 148/3/2 145/3/2 149/3/2
f 149/3/2 145/3/2 150/3/2
f 148/3/2 149/3/2 155/3/2
f 151/3/2 152/3/2 156/3/2
f 153/3/2 154/3/2 157/3/2
f 155/3/2 156/3/2 158/3/2
f 148/3/2 155/3/2 158/3/2
f 158/3/2 156/3/2 159/3/2
f 156/3/2 152/3/2 160/3/2
f 159/3/2 156/3/2 160/3/2
f 153/3/2 157/3/2 161/3/2
f 157/3/2 158/3/2 161/3/2
f 158/2/2 159/2/2 162/2/2
f 161/3/2 158/3/2 162/3/2
f 162/2/2 159/2/2 163/2/2
f 163/2/2 159/2/2 164/2/2
f 163/1/2 164/1/2 165/1/2
f 165/1/2 164/1/2 166/1/2
f 167/3/2 168/3/2 169/3/2
f 169/3/2 170/3/2 171/3/2
f 167/3/2 169/3/2 173/3/2
f 171/3/2 172/3/2 173/3/2
f 169/3/2 171/3/2 173/3/2
f 173/3/2 172/3/2 174/3/2
f 174/3/2 172/3/2 175/3/2
f 175/3/2 172/3/2 176/3/2
f 174/3/2 175/3/2 177/3/2
f 177/3/2 175/3/2 178/3/2
f 179/3/2 180/3/2 181/3/2
f 181/3/2 180/3/2 182/3/2
f 183/3/2 184/3/2 185/3/2
f 185/3/2 184/3/2 186/3/2
f 187/3/2 188/3/2 189/3/2
f 189/3/2 188/3/2 190/3/2
f 191/3/2 192/3/2 193/3/2
f 193/3/2 192/3/2 194/3/2
f 195/3/2 196/3/2 197/3/2
f 197/3/2 196/3/2 198/3/2
f 199/3/2 200/3/2 201/3/2
f 201/3/2 200/3/2 202/3/2
f 203/3/2 204/3/2 205/3/2
f 205/3/2 204/3/2 206/3/2
f 207/3/2 208/3/2 209/3/2
f 209/3/2 208/3/2 210/3/2
f 211/3/2 212/3/2 213/3/2
f 213/3/2 212/3/2 214/3/2
f 217/3/3 216/3/3 215/3/3
f 218/3/3 216/3/3 217/3/3
f 221/3/3 220/3/3 219/3/3
f 222/3/3 220/3/3 221/3/3
f 225/3/3 224/3/3 223/3/3
f 226/3/3 224/3/3 225/3/3
f 229/3/3 228/3/3 227/3/3
f 230/3/3 228/3/3 229/3/3
f 233/3/3 232/3/3 231/3/3
f 234/3/3 232/3/3 233/3/3
f 238/3/3 236/3/3 235/3/3
f 240/3/3 238/3/3 237/3/3
f 241/3/3 236/3/3 238/3/3
f 241/3/3 238/3/3 240/3/3
f 242/3/3 236/3/3 241/3/3
f 243/3/3 240/3/3 239/3/3
f 243/3/3 241/3/3 240/3/3
f 244/3/3 241/3/3 243/3/3
f 245/3/3 243/3/3 239/3/3
f 246/3/3 243/3/3 245/3/3
f 249/3/3 248/3/3 247/3/3
f 250/3/3 248/3/3 249/3/3
f 253/3/3 252/3/3 251/3/3
f 254/3/3 252/3/3 253/3/3
f 261/3/3 256/3/3 255/3/3
f 261/3/3 257/3/3 256/3/3
f 262/3/3 257/3/3 261/3/3
f 263/2/3 259/2/3 258/2/3
f 264/1/3 260/1/3 259/1/3
f 264/2/3 259/2/3 263/2/3
f 265/1/3 260/1/3 264/1/3
f 268/3/3 267/3/3 266/3/3
f 269/3/3 267/3/3 268/3/3
f 272/4/3 271/4/3 270/4/3
f 273/4/3 271/4/3 272/4/3
f 276/4/3 275/4/3 274/4/3
f 277/4/3 275/4/3 276/4/3
f 280/3/3 279/3/3 278/3/3
f 281/3/3 279/3/3 280/3/3
f 284/4/3 283/4/3 282/4/3
f 285/4/3 283/4/3 284/4/3
f 288/4/3 287/4/3 286/4/3
f 289/4/3 287/4/3 288/4/3
f 294/4/3 293/4/3 292/4/3
f 295/4/3 293/4/3 294/4/3
f 296/3/3 291/3/3 290/3/3
f 297/3/3 291/3/3 296/3/3
f 300/3/3 299/3/3 298/3/3
f 301/3/3 299/3/3 300/3/3
f 302/3/3 299/3/3 301/3/3
f 305/3/3 304/3/3 303/3/3
f 306/3/3 304/3/3 305/3/3
f 309/3/3 308/3/3 307/3/3
f 310/3/3 308/3/3 309/3/3
f 313/3/3 312/3/3 311/3/3
f 314/3/3 312/3/3 313/3/3
f 317/3/3 316/3/3 315/3/3
f 318/3/3 316/3/3 317/3/3
f 319/3/4 320/3/4 321/3/4
f 321/3/4 320/3/4 322/3/4
f 323/3/4 324/3/4 325/3/4
f 325/3/4 324/3/4 326/3/4
f 327/3/4 328/3/4 329/3/4
f 329/3/4 328/3/4 330/3/4
f 331/3/4 332/3/4 333/3/4
f 333/3/4 332/3/4 334/3/4
f 335/3/4 336/3/4 339/3/4
f 336/3/4 337/3/4 339/3/4
f 339/3/4 337/3/4 340/3/4
f 338/3/4 339/3/4 341/3/4
f 341/3/4 339/3/4 342/3/4
f 338/3/4 341/3/4 343/3/4
f 343/3/4 341/3/4 344/3/4
f 347/3/4 348/3/4 351/3/4
f 351/3/4 348/3/4 352/3/4
f 349/3/4 350/3/4 353/3/4
f 353/3/4 350/3/4 354/3/4
f 355/3/4 356/3/4 357/3/4
f 357/3/4 356/3/4 358/3/4
f 345/3/4 346/3/4 359/3/4
f 359/3/4 346/3/4 360/3/4
f 361/3/4 362/3/4 363/3/4
f 363/3/4 362/3/4 364/3/4
f 365/4/4 366/4/4 367/4/4
f 367/4/4 366/4/4 368/4/4
f 369/4/4 370/4/4 371/4/4
f 371/4/4 370/4/4 372/4/4
f 373/3/4 374/3/4 375/3/4
f 375/3/4 374/3/4 376/3/4
f 377/4/4 378/4/4 379/4/4
f 379/4/4 378/4/4 380/4/4
f 381/4/4 382/4/4 383/4/4
f 383/4/4 382/4/4 384/4/4
f 385/4/4 386/4/4 387/4/4
f 387/4/4 386/4/4 388/4/4
f 389/3/4 390/3/4 391/3/4
f 391/3/4 390/3/4 392/3/4
f 393/3/4 394/3/4 401/3/4
f 401/3/4 394/3/4 402/3/4
f 402/3/4 394/3/4 403/3/4
f 395/3/4 396/3/4 404/3/4
f 396/3/4 397/3/4 404/3/4
f 404/3/4 397/3/4 405/3/4
f 398/2/4 399/2/4 406/2/4
f 399/1/4 400/1/4 407/1/4
f 406/2/4 399/2/4 407/2/4
f 407/1/4 400/1/4 408/1/4
f 402/3/4 403/3/4 409/3/4
f 409/3/4 403/3/4 410/3/4
f 411/3/4 412/3/4 413/3/4
f 413/3/4 412/3/4 414/3/4
f 417/3/4 418/3/4 419/3/4
f 419/3/4 418/3/4 420/3/4
f 417/3/4 419/3/4 421/3/4
f 421/3/4 419/3/4 422/3/4
f 415/3/4 416/3/4 423/3/4
f 423/3/4 416/3/4 424/3/4
f 425/3/4 426/3/4 427/3/4
f 427/3/4 426/3/4 428/3/4
f 429/3/4 430/3/4 431/3/4
f 431/3/4 430/3/4 432/3/4
f 435/3/5 434/3/5 433/3/5
f 436/3/5 434/3/5 435/3/5
f 439/3/5 438/3/5 437/3/5
f 440/3/5 438/3/5 439/3/5
f 443/3/5 442/3/5 441/3/5
f 444/3/5 442/3/5 443/3/5
f 445/3/5 442/3/5 444/3/5
f 447/3/5 446/3/5 445/3/5
f 447/3/5 445/3/5 444/3/5
f 448/3/5 446/3/5 447/3/5
f 449/3/5 443/3/5 441/3/5
f 450/3/5 443/3/5 449/3/5
f 453/3/5 452/3/5 451/3/5
f 454/3/5 452/3/5 453/3/5
f 457/3/5 456/3/5 455/3/5
f 458/3/5 456/3/5 457/3/5
f 460/3/5 459/3/5 458/3/5
f 461/3/5 459/3/5 460/3/5
f 462/3/5 459/3/5 461/3/5
f 465/3/5 464/3/5 463/3/5
f 466/3/5 465/3/5 463/3/5
f 467/3/5 465/3/5 466/3/5
f 471/3/5 469/3/5 468/3/5
f 472/3/5 471/3/5 470/3/5
f 473/3/5 469/3/5 471/3/5
f 473/3/5 471/3/5 472/3/5
f 477/3/5 475/3/5 474/3/5
f 478/3/5 477/3/5 476/3/5
f 479/3/5 475/3/5 477/3/5
f 479/3/5 477/3/5 478/3/5
f 482/3/5 481/3/5 480/3/5
f 483/3/5 481/3/5 482/3/5
f 488/3/5 485/3/5 484/3/5
f 489/3/5 485/3/5 488/3/5
f 490/3/5 487/3/5 486/3/5
f 491/3/5 487/3/5 490/3/5
f 494/3/5 493/3/5 492/3/5
f 495/3/5 493/3/5 494/3/5
f 498/3/5 497/3/5 496/3/5
f 499/3/5 497/3/5 498/3/5
f 502/4/5 501/4/5 500/4/5
f 503/4/5 501/4/5 502/4/5
f 506/3/5 505/3/5 504/3/5
f 507/3/5 505/3/5 506/3/5
f 510/4/5 509/4/5 508/4/5
f 511/4/5 509/4/5 510/4/5
f 514/3/5 513/3/5 512/3/5
f 515/3/5 513/3/5 514/3/5
f 518/4/5 517/4/5 516/4/5
f 519/4/5 517/4/5 518/4/5
f 522/4/5 521/4/5 520/4/5
f 523/4/5 521/4/5 522/4/5
f 524/3/6 525/3/6 526/3/6
f 526/3/6 525/3/6 527/3/6
f 524/3/6 526/3/6 528/3/6
f 527/3/6 525/3/6 529/3/6
f 524/3/6 528/3/6 530/3/6
f 528/3/6 529/3/6 530/3/6
f 529/3/6 525/3/6 531/3/6
f 530/3/6 529/3/6 531/3/6
f 532/3/6 533/3/6 534/3/6
f 534/3/6 533/3/6 535/3/6
f 536/3/6 537/3/6 538/3/6
f 538/3/6 537/3/6 539/3/6
f 539/3/6 537/3/6 540/3/6
f 540/3/6 537/3/6 541/3/6
f 541/3/6 537/3/6 542/3/6
f 536/3/6 538/3/6 544/3/6
f 539/3/6 540/3/6 545/3/6
f 542/3/6 543/3/6 546/3/6
f 541/3/6 542/3/6 546/3/6
f 546/3/6 543/3/6 547/3/6
f 544/3/6 545/3/6 548/3/6
f 536/3/6 544/3/6 548/3/6
f 545/3/6 540/3/6 549/3/6
f 548/3/6 545/3/6 549/3/6
f 550/3/6 551/3/6 552/3/6
f 552/3/6 551/3/6 553/3/6
f 554/3/6 555/3/6 556/3/6
f 556/3/6 555/3/6 557/3/6
f 558/3/6 559/3/6 560/3/6
f 560/3/6 559/3/6 561/3/6
f 562/3/6 563/3/6 564/3/6
f 564/3/6 563/3/6 565/3/6
f 566/3/6 567/3/6 569/3/6
f 568/3/6 569/3/6 570/3/6
f 569/3/6 567/3/6 571/3/6
f 570/3/6 569/3/6 571/3/6
f 572/3/6 573/3/6 574/3/6
f 574/3/6 573/3/6 575/3/6
f 575/3/6 573/3/6 576/3/6
f 576/3/6 577/3/6 579/3/6
f 575/3/6 576/3/6 579/3/6
f 579/3/6 577/3/6 580/3/6
f 580/3/6 577/3/6 581/3/6
f 578/3/6 579/3/6 582/3/6
f 582/3/6 579/3/6 583/3/6
f 583/3/6 584/3/6 585/3/6
f 585/3/6 584/3/6 586/3/6
f 587/3/6 588/3/6 589/3/6
f 589/3/6 588/3/6 590/3/6
f 591/3/6 592/3/6 593/3/6
f 593/3/6 592/3/6 594/3/6
f 595/3/6 596/3/6 597/3/6
f 597/3/6 596/3/6 598/3/6
f 599/3/6 600/3/6 601/3/6
f 601/3/6 600/3/6 602/3/6
f 603/3/6 604/3/6 605/3/6
f 605/3/6 604/3/6 606/3/6
f 607/4/6 608/4/6 609/4/6
f 609/4/6 608/4/6 610/4/6
f 611/4/6 612/4/6 613/4/6
f 613/4/6 612/4/6 614/4/6
f 615/3/6 616/3/6 617/3/6
f 617/3/6 616/3/6 618/3/6
f 619/4/6 620/4/6 621/4/6
f 621/4/6 620/4/6 622/4/6
f 623/4/6 624/4/6 625/4/6
f 625/4/6 624/4/6 626/4/6
f 627/3/6 628/3/6 629/3/6
f 629/3/6 628/3/6 630/3/6
f 631/4/6 632/4/6 633/4/6
f 633/4/6 632/4/6 634/4/6
f 635/4/6 636/4/6 637/4/6
f 637/4/6 636/4/6 638/4/6
f 639/1/6 640/1/6 641/1/6
f 641/1/6 640/1/6 642/1/6
